<svg id="snowed-mountains" xmlns="http://www.w3.org/2000/svg" width="50" height="35" viewBox="0 0 50 35">
  <path id="Path_2317" data-name="Path 2317" d="M49.535,101.905c-3.736-5.152-15.2-21.079-15.2-21.079a1.676,1.676,0,0,0-1.184-.679,1.658,1.658,0,0,0-1.3.429l-3,2.746L21.8,70.532a1.661,1.661,0,0,0-1.429-.849,1.636,1.636,0,0,0-1.46.809L.247,102.255a1.584,1.584,0,0,0,0,1.618,1.67,1.67,0,0,0,1.429.809H48.371a1.636,1.636,0,0,0,1.654-1.618A1.924,1.924,0,0,0,49.535,101.905ZM29.546,87.127l3.185-2.916,6.329,8.777-5.37-5.472a.468.468,0,0,0-.337-.14.524.524,0,0,0-.337.13l-3.828,3.734a.481.481,0,0,1-.51.1.457.457,0,0,1-.286-.419l.01-3.4A1.642,1.642,0,0,0,29.546,87.127ZM20.3,74.626l4.1,7.449-3.083,2.656a.483.483,0,0,1-.347.11.457.457,0,0,1-.327-.17l-1.98-2.456a.443.443,0,0,0-.388-.17.481.481,0,0,0-.368.21l-2.981,4.663a.469.469,0,0,1-.827-.08l-.4-.989Z" transform="translate(-0.025 -69.681)" fill="#122b2f"/>
  <path id="Path_2318" data-name="Path 2318" d="M140.53,119.2,134,130.562l.394,1a.536.536,0,0,0,.384.293c.263.03.414-.182.566-.425l2.82-4.508s.414-.475.748-.04,1.961,2.487,1.961,2.487a.471.471,0,0,0,.667.061l3.053-2.689Z" transform="translate(-120.286 -114.194)" fill="#f4f4f4"/>
  <path id="Path_2319" data-name="Path 2319" d="M288.454,223.986l-6.268-8.885-3.154,2.952a1.516,1.516,0,0,1-1.122.4l-.01,3.447s.071.8.788.323c.485-.4,3.791-3.781,3.791-3.781a.467.467,0,0,1,.7.051C283.541,218.881,288.454,223.986,288.454,223.986Z" transform="translate(-249.457 -200.64)" fill="#f4f4f4"/>
</svg>
