<svg xmlns="http://www.w3.org/2000/svg" width="600.101" height="848.179" viewBox="0 0 600.101 848.179">
  <g id="Group_198" data-name="Group 198" transform="translate(-9755.149 -1344.85)" opacity="0.249">
    <path id="Path_206" data-name="Path 206" d="M27.61,34.95c3.525-5.036,3.425-14-.2-23.972C23.884,1.41,18.646,0,15.725,0A10.6,10.6,0,0,0,6.761,5.338C.315,16.821-1.5,25.583,1.221,31.425,3.034,35.353,6.962,37.972,12.8,39.08a28.178,28.178,0,0,0,4.835.5h0C22.071,39.584,25.394,38.073,27.61,34.95ZM17.538,38.576h0a27.013,27.013,0,0,1-4.633-.5c-5.54-1.108-9.166-3.525-10.878-7.151-2.518-5.54-.705-14,5.54-25.18a9.6,9.6,0,0,1,8.058-4.734c4.432,0,8.259,3.626,10.676,10.374,3.525,9.669,3.626,18.331.3,23.065C24.79,37.166,21.668,38.576,17.538,38.576Z" transform="translate(10172.339 1991.27) rotate(90)" fill="#fff" opacity="0.348"/>
    <path id="Path_207" data-name="Path 207" d="M18.467,44.922h0c8.158,0,16.821-8.058,23.065-21.454C45.864,14.2,44.454,8.662,42.54,5.54A12.9,12.9,0,0,0,31.863,0,11.317,11.317,0,0,0,28.64.4C12.928,4.835,3.56,10.979.841,18.432-.972,23.468.136,29.109,4.266,35.253,8.294,41.7,13.129,44.922,18.467,44.922ZM1.647,18.835C4.266,11.684,13.431,5.842,28.842,1.41a9.545,9.545,0,0,1,3.022-.4,11.753,11.753,0,0,1,9.871,5.036c1.813,2.82,3.122,8.058-1.007,16.921-6.043,12.892-14.5,20.849-22.159,20.849h0c-4.935,0-9.468-3.122-13.5-9.166C1.042,28.907-.066,23.569,1.647,18.835Z" transform="translate(9932.018 1663.096) rotate(90)" fill="#fff" opacity="0.348"/>
    <path id="Path_208" data-name="Path 208" d="M59.354,92.563h0c10.173,0,20.447-5.238,30.418-15.511,12.489-12.892,17.022-25.483,13.5-37.368C98.333,22.965,77.081,8.864,46.462,1.914A70.219,70.219,0,0,0,30.749,0C14.835,0,7.281,7.051,3.756,12.892c-5.54,9.266-4.23,20.749-.705,27.4C21.583,74.937,40.519,92.563,59.354,92.563ZM4.561,13.4C7.986,7.756,15.238,1.007,30.648,1.007A67.883,67.883,0,0,1,46.16,2.921c30.217,6.849,51.167,20.749,56,37.066,3.425,11.482-1.007,23.77-13.195,36.361C79.2,86.419,69.225,91.556,59.354,91.556h0c-18.432,0-37.066-17.425-55.5-51.771C.533,33.339-.777,22.36,4.561,13.4Z" transform="translate(10157.634 1680.829) rotate(90)" fill="#fff" opacity="0.348"/>
    <path id="Path_209" data-name="Path 209" d="M29.263,46.03h0c5.137,0,10.274-2.619,15.209-7.655,6.245-6.446,8.461-12.792,6.648-18.835C48.6,11.18,38.328,4.23,23.421.906A35.859,35.859,0,0,0,15.766,0C7.708,0,3.78,3.626,1.967,6.648a14.832,14.832,0,0,0-.3,14.2C10.629,37.469,19.9,46.03,29.263,46.03ZM4.586,8.058C6.6,4.633,10.529,2.82,15.766,2.82a30.762,30.762,0,0,1,7.051.906c13.6,3.122,23.367,9.468,25.483,16.619,1.511,4.935-.5,10.274-5.943,15.914-4.331,4.532-8.763,6.748-13.094,6.748h0c-8.158,0-16.619-7.957-24.979-23.67A12.116,12.116,0,0,1,4.586,8.058Z" transform="translate(10134.267 1713.539) rotate(90)" fill="#fff" opacity="0.348"/>
    <path id="Path_210" data-name="Path 210" d="M74.817,64.764c0-30.418-19.641-59.728-35.958-63.858A25.091,25.091,0,0,0,32.916,0C30.6,0,28.887.6,27.78,1.914,25.664,4.331,26.067,8.259,26.672,13.4a57.53,57.53,0,0,1,.6,10.475c-.3,8.461-4.935,12.187-10.677,16.921a55.755,55.755,0,0,0-9.971,9.669C1.39,57.512-2.236,69.3,1.592,79.57c2.417,6.648,9.065,15.41,26.893,19.54a84.99,84.99,0,0,0,19.439,2.619C71.493,101.729,74.817,84,74.817,64.764ZM4.311,78.462C.887,69.2,4.211,58.62,8.945,52.174a50.137,50.137,0,0,1,9.367-9.166c5.842-4.734,11.482-9.266,11.785-19.137a74.357,74.357,0,0,0-.6-10.979c-.5-4.13-.907-7.756.4-9.065a3.749,3.749,0,0,1,2.921-.906,24.638,24.638,0,0,1,5.238.806C53.262,7.554,71.694,35.555,71.694,64.663c0,24.778-6.547,34.044-24.073,34.044a84.445,84.445,0,0,1-18.734-2.518C15.794,93.067,7.434,87.124,4.311,78.462Z" transform="translate(10217.262 1963.1) rotate(90)" fill="#fff" opacity="0.348"/>
    <path id="Path_211" data-name="Path 211" d="M6.271,38.677c6.345,0,14.907-8.864,18.835-17.123,3.425-7.051,3.425-13.3.1-17.324Q21.732,0,17.653,0C14.933,0,12.214,1.41,9.6,4.13,3.854,10.173-.376,22.058.027,30.619.429,37.67,4.055,38.677,6.271,38.677ZM11.71,6.144c1.41-1.511,3.525-3.223,5.842-3.223,1.813,0,3.525,1.007,5.238,3.122,3.425,4.23,1.209,10.677-.5,14.2C18.459,28.2,10.7,35.656,6.171,35.656c-.705,0-2.921,0-3.223-5.238C2.645,22.763,6.573,11.583,11.71,6.144Z" transform="translate(9985.601 1731.696) rotate(90)" fill="#fff" opacity="0.348"/>
    <path id="Path_212" data-name="Path 212" d="M166.035,241.732c9.166-10.576,12.691-25.18,10.173-42.3-6.95-47.44-29.512-64.563-46.03-77.153C120,114.521,112.048,108.477,111.544,98c-1.108-28.2-10.475-35.253-44.318-46.533-27.9-9.266-30.821-15.31-37.771-29.814-1.41-2.921-3.022-6.144-4.935-9.871C20.491,4.13,15.858,0,11.628,0A7.1,7.1,0,0,0,6.592,2.317C1.959,7.051-.358,18.533.045,34.548c.6,22.461,12.792,36.562,26.993,52.879,9.065,10.475,19.238,22.26,27.4,37.67,11.281,21.554,9.77,33.943,7.856,49.555-1.511,12.59-3.223,26.792,1.309,49.052,4.935,23.77,32.533,36.159,57.21,36.159C139.645,259.862,156.063,253.215,166.035,241.732ZM64.608,223.5c-4.532-22.058-2.82-36.26-1.309-48.649,1.813-15.209,3.425-28.3-7.957-50.159-8.158-15.612-18.432-27.4-27.5-37.871-14-16.216-26.087-30.116-26.691-52.174C.75,18.936,2.966,7.655,7.4,3.122a6.2,6.2,0,0,1,4.331-2.014c3.827,0,8.158,4.13,12.087,11.281,1.914,3.626,3.525,6.95,4.935,9.871,6.95,14.4,10.072,20.95,38.375,30.317,33.339,11.079,42.5,18.029,43.613,45.627.4,10.878,8.662,17.123,19.036,24.979,16.317,12.389,38.778,29.411,45.627,76.448,2.518,17.022-.907,30.922-9.971,41.5-9.77,11.281-25.986,17.828-44.418,17.828C96.536,258.855,69.342,246.769,64.608,223.5Z" transform="translate(10340.646 1889.307) rotate(90)" fill="#fff" opacity="0.348"/>
    <path id="Path_213" data-name="Path 213" d="M28.6,85.916c1.108,32.03,2.417,68.39,46.634,86.52,13.4,5.54,25.583,9.367,36.361,12.691,35.958,11.281,59.627,18.634,80.577,71.513,29.411,74.131,65.066,111.7,108.88,114.621,2.216.1,4.331.2,6.345.2,19.339,0,33.54-6.446,39.584-18.13,7.151-14,1.612-33.339-15.813-54.289-24.979-30.217-27.3-51.771-30.217-79.067a345.976,345.976,0,0,0-5.439-36.965c-5.943-27.5-20.447-46.231-34.447-64.361-10.374-13.3-20.044-25.886-26.087-41.3C223.7,48.246,226.624,12.993,228.236.3h-3.022c-1.612,13.3-4.432,48.649,6.95,78.16,6.144,15.813,16.015,28.6,26.49,42.1,13.8,17.928,28.1,36.361,33.943,63.153a336.032,336.032,0,0,1,5.439,36.562c2.82,26.691,5.338,49.757,30.922,80.678,16.518,20.044,22.058,38.174,15.41,50.965-6.043,11.784-21.756,17.727-43.008,16.216-42.5-2.921-77.254-39.785-106.262-112.808-21.454-54.188-45.728-61.743-82.491-73.225-10.677-3.324-22.864-7.151-36.159-12.59-42.4-17.425-43.613-52.678-44.72-83.9-.4-10.374-.705-20.144-2.518-28.806C24.073,31.627,10.777,10.072,3.727,0H0C6.446,8.864,20.849,31.123,26.288,57.411,27.9,66.074,28.3,75.743,28.6,85.916Z" transform="translate(10355.25 1631.706) rotate(90)" fill="#fff" opacity="0.348"/>
    <path id="Path_214" data-name="Path 214" d="M22.058,74.534c2.921,28.907,6.043,58.721,41.6,79.369,16.619,9.669,31.224,15.008,44.116,19.641,21.857,7.957,39.181,14.3,55.095,36.562,4.432,6.144,8.461,12.087,12.389,17.928,16.317,23.972,28.706,42.3,44.418,42.3a21.407,21.407,0,0,0,8.36-1.712c3.525-1.41,5.943-4.633,7.353-9.569,7.151-26.591-19.54-97.3-37.871-120.161-1.108-1.41-2.317-2.921-3.626-4.432-21.152-26.087-56.2-69.3-46.332-134.464H146.55c-9.871,65.469,25.281,108.88,46.533,135.068,1.209,1.511,2.417,3.022,3.626,4.432,18.231,22.763,44.721,92.866,37.67,119.255-1.209,4.633-3.525,7.655-6.748,8.863-19.137,7.453-32.735-12.59-51.57-40.289-3.928-5.741-7.957-11.784-12.389-17.928-16.115-22.562-33.54-28.907-55.5-36.864-12.892-4.734-27.5-9.971-44.015-19.641-35.152-20.447-38.174-50.059-41.094-78.664-.705-7.051-1.511-14.3-2.72-21.353A157.871,157.871,0,0,0,1.209,0H0A156.692,156.692,0,0,1,19.339,53.08C20.547,60.232,21.353,67.484,22.058,74.534Z" transform="translate(10355.049 1672.297) rotate(90)" fill="#fff" opacity="0.348"/>
    <path id="Path_215" data-name="Path 215" d="M86.319,144.032l1.612.6c8.863,3.324,16.317,5.036,22.058,5.036,5.036,0,8.662-1.309,10.576-4.029,3.827-5.439,0-15.511-10.576-27.5C89.743,94.981,71.311,48.649,77.153,0H76.146C70.3,48.85,88.837,95.585,109.283,118.952c9.971,11.482,13.9,21.252,10.475,26.188-3.727,5.338-15.108,4.835-31.425-1.41l-1.612-.6c-34.648-13.195-59.627-22.662-65.671-70.707C16.518,35.857,6.144,10.475,1.209,0H0C4.835,10.072,15.41,35.454,19.943,72.52,26.087,121.168,52.677,131.241,86.319,144.032Z" transform="translate(10354.948 1711.578) rotate(90)" fill="#fff" opacity="0.348"/>
    <path id="Path_216" data-name="Path 216" d="M23.317,56.5C30.971,70,38.223,82.693,47.188,82.693h0a6.649,6.649,0,0,0,1.41-.1c1.813-.3,4.029-1.511,4.734-5.943C55.749,59.728,33.892,9.266,18.28,1.914A17.84,17.84,0,0,0,10.626,0,9.772,9.772,0,0,0,1.359,5.943c-3.022,6.547-1.41,18.432,8.964,30.519C14.856,41.7,19.187,49.253,23.317,56.5ZM4.179,7.151a6.682,6.682,0,0,1,6.446-4.13,15.019,15.019,0,0,1,6.345,1.712c14.1,6.648,35.555,56.4,33.339,71.513-.5,3.223-1.712,3.324-2.216,3.425-.3,0-.6.1-1.007.1h0c-7.252,0-14.3-12.59-21.252-24.677-4.23-7.453-8.561-15.108-13.3-20.547C3.273,23.468,1.661,12.59,4.179,7.151Z" transform="translate(10192.584 1836.323) rotate(90)" fill="#fff" opacity="0.348"/>
    <path id="Path_217" data-name="Path 217" d="M9.277,48.447h1.007c12.792-.6,43.21-30.418,46.332-42.5.705-3.022-.3-4.331-1.309-4.935A7.539,7.539,0,0,0,51.681,0c-5.842,0-13.4,5.842-21.353,12.087-5.137,4.029-10.475,8.158-15.31,10.677C3.637,28.605-1.1,37.469.212,42.908,1.018,46.433,4.342,48.447,9.277,48.447ZM15.421,23.67c4.935-2.518,10.274-6.648,15.41-10.777C38.688,6.748,46.04,1.007,51.58,1.007a6.251,6.251,0,0,1,3.122.806c1.007.6,1.309,1.914.806,3.827-3.022,11.986-32.835,41.2-45.426,41.8-5.036.2-8.158-1.511-8.964-4.835C-.09,37.569,4.543,29.209,15.421,23.67Z" transform="translate(10041.703 1632.4) rotate(90)" fill="#fff" opacity="0.348"/>
    <path id="Path_218" data-name="Path 218" d="M42.605,56.616c3.022.705,4.331-.3,4.935-1.309a7.54,7.54,0,0,0,1.007-3.626c0-5.842-5.842-13.4-12.087-21.353-4.029-5.137-8.158-10.475-10.676-15.31C19.943,3.637,11.079-1.1,5.64.212,2.115,1.119,0,4.342,0,9.277v1.007C.7,22.975,30.418,53.494,42.605,56.616ZM5.942,1.219c5.036-1.209,13.4,3.425,18.936,14.3C27.4,20.457,31.526,25.8,35.655,30.932,41.8,38.788,47.541,46.141,47.541,51.681a6.252,6.252,0,0,1-.806,3.122c-.6,1.007-1.914,1.309-3.827.806-11.986-3.022-41.2-32.835-41.8-45.426C.806,5.248,2.619,2.025,5.942,1.219Z" transform="translate(10058.836 1899.122) rotate(90)" fill="#fff" opacity="0.348"/>
    <path id="Path_219" data-name="Path 219" d="M42.807,56.64c3.525-.907,5.64-4.13,5.64-9.065V46.568c-.6-12.792-30.418-43.21-42.5-46.332-3.022-.705-4.331.3-4.935,1.309A7.54,7.54,0,0,0,0,5.171c0,5.842,5.842,13.4,12.087,21.353C16.115,31.661,20.245,37,22.763,41.834,28.5,53.115,37.368,57.849,42.807,56.64ZM23.569,41.33c-2.518-4.935-6.648-10.274-10.777-15.41C6.648,18.063.907,10.711.907,5.171a6.252,6.252,0,0,1,.806-3.122c.6-1.007,1.914-1.309,3.827-.806,11.986,3.022,41.2,32.835,41.8,45.426.2,5.036-1.511,8.158-4.835,8.964C37.469,56.841,29.109,52.208,23.569,41.33Z" transform="translate(10279.34 1933.368) rotate(90)" fill="#fff" opacity="0.348"/>
    <path id="Path_220" data-name="Path 220" d="M8.259,513.581c-2.921-26.087-5.741-50.764,1.914-58.419,2.014-2.014,4.734-2.719,8.36-2.216,19.238,2.518,36.864,23.972,53.987,44.721,16.72,20.346,34.044,41.4,53.483,45.426,32.634,6.748,44.72-10.576,74.031-52.275,7.655-10.878,16.317-23.267,26.792-37.368,39.08-52.375,73.023-43.512,112.406-33.138,11.684,3.122,23.77,6.245,36.764,8.159,34.95,5.036,63.656-1.612,78.764-18.029,11.382-12.49,14.705-30.217,9.77-51.469-10.777-45.426.5-48.346,25.281-54.793,3.425-.906,7.051-1.813,10.878-2.921,17.828-5.238,32.735-18.029,42-36.159,10.979-21.554,13.9-50.26,8.259-82.995C538.862,111.7,492.53,80.477,437.737,49.656,401.074,29.008,392.211,9.065,390.1,0h-3.122c1.914,9.468,10.576,30.519,49.253,52.275,54.088,30.418,99.815,61.239,111.7,130.334,5.54,32.13,2.82,60.131-7.957,81.081-8.864,17.324-23.166,29.713-40.188,34.648-3.827,1.108-7.353,2.014-10.777,2.921-25.08,6.547-38.879,10.072-27.4,58.318,4.734,20.144,1.611,37.066-8.964,48.649-14.3,15.713-42.1,21.957-76.045,17.123-12.792-1.813-24.778-5.036-36.461-8.058-40.389-10.576-75.34-19.842-115.629,34.245-10.576,14.2-19.238,26.591-26.893,37.469-29.209,41.8-40.188,57.411-70.908,51.066-18.432-3.727-35.353-24.375-51.771-44.418-17.425-21.152-35.454-43.109-55.9-45.828-4.532-.6-8.158.4-10.878,3.122-8.763,8.561-6.043,32.835-2.82,60.836C8.964,545.912,13.094,582.072,0,599.4H3.727C15.914,580.661,11.885,545.308,8.259,513.581Z" transform="translate(10354.948 1543.272) rotate(90)" fill="#fff" opacity="0.348"/>
    <path id="Path_221" data-name="Path 221" d="M36.562,217.861c11.583,17.123,25.886,38.476,49.354,38.476,14.806,0,25.785-4.13,36.461-8.058,14.6-5.439,27.3-10.173,47.037-3.223,12.389,4.432,24.274,12.792,36.864,21.655C224.912,279.906,244.15,293.5,265.8,293.4a50.86,50.86,0,0,0,11.482-1.309c18.734-4.23,31.526-13.6,36.965-26.993,6.849-16.72,2.014-38.677-14-63.555-21.051-32.835-18.634-61.239-15.914-91.455,1.007-12.087,2.115-24.677,1.813-38.073C285.345,36.864,269.431,11.18,261.071,0h-3.827c7.554,9.569,25.08,35.656,25.886,72.117.3,13.3-.806,25.684-1.813,37.771-2.719,30.72-5.238,59.728,16.418,93.369,15.41,23.972,20.144,45.023,13.8,60.836-5.036,12.389-17.123,21.152-34.85,25.18-25.18,5.741-47.239-9.871-68.592-24.979-12.187-8.561-24.778-17.526-37.569-22.058-20.849-7.353-34.548-2.216-49.152,3.223-10.374,3.928-21.051,7.856-35.353,7.856-21.857,0-35.656-20.547-46.836-37.166C32.835,206.681,27.3,198.523,21.152,195.1c-8.763-4.935-16.115-6.95-21.152-7.655v3.022a58.867,58.867,0,0,1,19.641,7.252C24.979,200.739,30.317,208.7,36.562,217.861Z" transform="translate(10354.948 1345.051) rotate(90)" fill="#fff" opacity="0.348"/>
    <path id="Path_222" data-name="Path 222" d="M61.742,201.041C81.988,196.206,94.88,182,107.269,168.306c11.784-12.993,22.864-25.281,39.483-28.706,12.49-2.518,29.411-1.007,49.052.806,33.54,3.122,75.239,6.95,110.089-10.173,23.065-11.281,36.562-26.288,43.713-36.864C358.57,80.275,362.8,66.476,360.987,56.5c-1.41-8.158-6.648-13.094-14.705-13.9-13.7-1.41-24.173,7.756-35.253,17.425-12.187,10.576-24.778,21.454-42.5,19.439-16.821-1.914-35.253-10.878-53.08-19.641-18.734-9.166-38.073-18.634-55.6-19.742-11.482-.806-24.274,2.619-37.771,6.144-26.591,6.95-54.188,14.1-72.721-10.374C29.109,9.166,10.072,1.914,0,0V3.122C9.669,5.238,27.8,12.49,46.836,37.569,66.678,63.757,96.492,55.9,122.78,49.052c13.3-3.525,25.886-6.748,36.864-6.043,16.921,1.108,36.058,10.475,54.491,19.439,18.029,8.863,36.763,17.928,54.088,19.842,19.137,2.115,32.835-9.77,44.821-20.144,10.576-9.166,20.648-17.928,33.037-16.619,8.36.906,11.18,6.648,11.986,11.482,3.022,17.022-13.9,51.066-53.483,70.505-34.145,16.72-75.34,12.892-108.477,9.871-19.842-1.813-37.066-3.425-49.958-.806-17.526,3.626-29.008,16.317-41.095,29.713S80.477,193.487,61.037,198.12A148.216,148.216,0,0,1,0,199.731v3.022a145.994,145.994,0,0,0,26.389,2.317A145.744,145.744,0,0,0,61.742,201.041Z" transform="translate(10107.172 1344.95) rotate(90)" fill="#fff" opacity="0.348"/>
    <path id="Path_223" data-name="Path 223" d="M161.961,120.766c-1.712-16.518-3.626-35.152-.806-54.793,4.835-34.145,3.827-50.764-3.626-59.325C153.6,2.115,147.759,0,139.6,0c-12.993,0-23.67,10.777-36.058,23.267-9.77,9.77-20.849,20.95-34.145,27.195C47.138,60.937,14.2,59.627,0,58.519v3.022c14.6,1.209,47.641,2.417,70.707-8.36,13.8-6.446,25.08-17.828,35.051-27.8C117.643,13.4,128.017,3.022,139.7,3.022c7.353,0,12.288,1.813,15.612,5.64,6.648,7.655,7.554,24.173,2.921,56.908-2.82,19.943-.906,38.879.806,55.5,2.115,20.95,3.928,37.972-3.928,50.059h3.525C165.788,158.133,163.975,140.608,161.961,120.766Z" transform="translate(9926.478 1345.051) rotate(90)" fill="#fff" opacity="0.348"/>
    <path id="Path_224" data-name="Path 224" d="M140,17.2C138.09,7.026,134.665,1.184,130.133.278c-12.792-2.518-27.195,12.489-42.4,28.4-9.468,9.871-19.137,20.044-28.706,25.986C40.994,65.848,13.094,68.869,0,69.574v1.007c13.195-.806,41.3-3.727,59.627-15.209C69.2,49.329,79.067,39.157,88.535,29.185c15.008-15.713,29.209-30.519,41.4-28.1,4.13.806,7.252,6.446,9.065,16.116,5.842,31.828-3.827,92.866-25.986,115.024h1.41C137.485,108.352,145.241,45.4,140,17.2Z" transform="translate(9887.775 1344.95) rotate(90)" fill="#fff" opacity="0.348"/>
    <path id="Path_225" data-name="Path 225" d="M120.463,16.066c-.1-7.051-2.014-11.785-5.54-13.6-9.871-5.137-12.59-2.115-21.554,7.756A260.507,260.507,0,0,1,66.678,36.109,143.4,143.4,0,0,1,0,66.729v1.007A143.834,143.834,0,0,0,67.282,36.814,262.5,262.5,0,0,0,94.074,10.828c8.964-9.871,11.18-12.187,20.346-7.453,3.122,1.612,4.935,6.043,5.036,12.691.3,18.633-12.691,53.584-30.317,69.1H90.65C107.974,69.045,120.766,34.6,120.463,16.066Z" transform="translate(9840.512 1344.95) rotate(90)" fill="#fff" opacity="0.348"/>
    <path id="Path_226" data-name="Path 226" d="M115.7,212.221c12.892,18.835,25.08,36.663,42.2,36.663,20.749,0,41.095-23.972,64.764-51.771,15.914-18.734,32.332-37.972,50.361-51.57,12.087-9.065,25.986-13.5,42.5-13.5,18.13,0,35.454,5.338,49.354,9.669,8.863,2.719,15.914,4.935,20.648,4.935h0a7.7,7.7,0,0,0,5.338-1.612c1.41-1.209,2.014-2.921,2.014-5.238,0-11.18-12.892-21.655-29.209-34.85C351.393,94.981,337.392,83.6,325.608,69.4,311,51.67,305.262,33.641,301.032,20.447,297.3,8.662,294.787.907,288.24,0h-.705c-4.835,0-9.266,5.842-15.511,14-10.475,13.8-24.778,32.634-49.052,32.634h0c-2.115,0-4.331-.2-6.648-.4a9.771,9.771,0,0,0-1.712-.1c-8.158,0-9.669,8.158-11.885,19.439-3.324,17.123-8.259,43.008-39.181,62.85-18.835,12.087-44.821,17.727-81.786,17.727-12.49,0-24.677-.6-35.454-1.209-8.964-.5-16.619-.907-23.166-.907-11.079,0-17.022,1.209-19.842,3.928-3.827,3.827-3.626,7.051-2.82,9.166C4.406,166.8,31.6,173.04,69.674,173.04,88.911,173.141,102.509,192.983,115.7,212.221ZM3.4,156.018c-.3-.705-1.108-2.719,2.115-5.943,2.82-2.72,11.482-3.122,17.727-3.122,6.547,0,14.2.4,23.065.806,10.777.6,22.965,1.209,35.555,1.209,37.469,0,64.059-5.842,83.4-18.231,32.03-20.547,37.166-47.239,40.49-64.865,2.417-12.389,3.727-17.727,10.173-16.921a56.655,56.655,0,0,0,7.051.5h0c25.785,0,40.692-19.54,51.469-33.843C279.679,8.763,284.11,2.82,287.535,2.82h.4c4.734.6,7.051,8.058,10.374,18.331,4.23,13.4,10.072,31.828,25.08,49.958,11.986,14.4,26.087,25.886,38.476,35.958,15.713,12.691,28.1,22.763,28.1,32.533,0,1.41-.3,2.417-1.007,2.921a5.21,5.21,0,0,1-3.425.806h0c-4.331,0-11.482-2.216-19.842-4.734-14.1-4.331-31.627-9.77-50.26-9.77-17.223,0-31.727,4.633-44.318,14.1-18.331,13.8-34.85,33.238-50.865,51.972-22.159,26.087-43.109,50.663-62.448,50.663-15.511,0-27.3-17.223-39.785-35.353-13.6-19.842-27.7-40.389-48.346-40.389C28.176,170.119,6.219,162.867,3.4,156.018Z" transform="translate(10096.597 1516.808) rotate(90)" fill="#fff" opacity="0.348"/>
    <path id="Path_227" data-name="Path 227" d="M51.267,139.4c19.137-3.626,34.447-16.921,48.044-28.706,9.77-8.461,19.036-16.518,28.2-19.54,11.986-3.928,31.224-2.518,51.67-1.108,17.123,1.209,34.749,2.518,51.267,1.108,19.036-1.612,31.627-6.849,32.03-13.3.3-5.137-6.849-9.669-19.641-12.288C226.02,62.045,213.933,55.2,202.35,48.548c-8.763-5.036-17.828-10.173-28.706-13.7-9.669-3.122-24.979.6-42.807,4.835-29.109,6.95-62.045,14.907-80.376-4.734C29.914,12.993,10.173,3.727,0,0V1.108C10.173,4.835,29.512,14,49.757,35.656c18.734,20.044,51.972,11.986,81.283,4.935,16.921-4.029,32.936-7.856,42.3-4.835,10.777,3.525,19.842,8.662,28.5,13.6,11.684,6.648,23.77,13.6,40.792,17.123,12.087,2.518,19.137,6.748,18.835,11.281-.3,4.935-9.971,10.576-31.123,12.389-16.418,1.41-34.145.1-51.167-1.108-20.447-1.511-39.785-2.82-51.972,1.108-9.367,3.022-18.634,11.18-28.5,19.641-13.5,11.684-28.806,24.878-47.641,28.4A105.327,105.327,0,0,1,0,134.766v1.007a106.789,106.789,0,0,0,32.634,5.036A80.276,80.276,0,0,0,51.267,139.4Z" transform="translate(10071.014 1344.95) rotate(90)" fill="#fff" opacity="0.348"/>
    <path id="Path_228" data-name="Path 228" d="M56.5,67.081c11.885-3.223,21.152-9.367,30.015-15.31,14.1-9.468,28.806-19.339,54.491-17.425,24.878,1.813,39.382-.5,43.21-6.95,1.813-3.022,1.209-6.748-1.612-11.281-4.633-7.353-29.109-4.23-57.311-.5-16.418,2.115-33.339,4.331-47.742,4.633C48.346,20.849,14.4,6.748,0,0V1.108C14.4,7.756,47.037,21.353,75.844,21.353h1.813c14.4-.3,31.425-2.518,47.843-4.633,26.691-3.425,51.972-6.748,56.3.1,2.619,4.13,3.122,7.554,1.612,10.173-3.626,6.043-17.828,8.259-42.3,6.446-26.087-1.914-40.893,7.957-55.2,17.626C77.052,57.009,67.887,63.153,56.2,66.275,34.447,72.117,11.382,69.6,0,67.685v1.007a164.071,164.071,0,0,0,26.288,2.216A119.483,119.483,0,0,0,56.5,67.081Z" transform="translate(10029.516 1344.95) rotate(90)" fill="#fff" opacity="0.348"/>
    <path id="Path_229" data-name="Path 229" d="M60.433,25.583a3.518,3.518,0,0,0,.5-3.827C59.023,16.72,47.742,11.281,35.857,9.468A156.082,156.082,0,0,1,0,0V1.108c7.051,2.921,18.936,6.849,35.656,9.367,11.382,1.712,22.461,7.051,24.274,11.684a2.615,2.615,0,0,1-.4,2.82C57.512,27.5,47.541,32.332,0,25.18v1.007c18.231,2.72,31.022,3.727,40.087,3.727C53.987,29.914,58.822,27.6,60.433,25.583Z" transform="translate(10005.846 1344.85) rotate(90)" fill="#fff" opacity="0.348"/>
    <path id="Path_230" data-name="Path 230" d="M44.655,144.737h0c10.576,0,21.353-7.151,31.828-21.353,6.547-8.864,16.317-18.634,26.691-29.008,22.26-22.36,45.325-45.526,41.095-63.354C140.038,13.3,122.714,0,110.023,0c-5.54,0-9.468,2.619-10.878,7.453C80.814,65.872,48.18,76.649,21.791,79.57,9.7,80.88,3.258,83.8.941,88.736c-2.921,6.446.806,16.116,13.3,34.648C23.805,137.586,34.079,144.737,44.655,144.737ZM1.848,89.24c2.115-4.633,8.461-7.353,20.044-8.662C39.417,78.664,52.914,73.527,64.7,64.462,80.31,52.375,91.893,33.843,100.052,7.655c1.712-5.54,6.345-6.748,9.971-6.748,10.878,0,28.806,11.482,33.238,30.217,4.13,17.324-18.734,40.289-40.792,62.448-10.374,10.374-20.144,20.245-26.691,29.109-10.274,13.9-20.749,20.95-31.022,20.95h0c-10.274,0-20.245-7.051-29.612-20.95C2.855,104.952-.972,95.182,1.848,89.24Z" transform="translate(10016.32 1633.484) rotate(90)" fill="#fff" opacity="0.348"/>
    <path id="Path_231" data-name="Path 231" d="M81.829,72.016h0c12.187,0,14.806-4.432,14.806-8.259.2-10.374-6.446-14-14.806-18.634-7.554-4.23-16.921-9.468-25.583-21.454-4.734-6.547-7.655-11.482-9.871-15.108C42.85,2.72,41.238,0,37.713,0,35.5,0,33.08,1.108,28.547,3.223c-1.007.5-2.115.907-3.223,1.511C22.2,6.144,19.18,7.252,16.259,8.259,9.108,10.878,2.863,13.094.748,18.432c-1.712,4.432-.5,10.374,3.827,18.734C14.144,55.8,59.469,72.016,81.829,72.016ZM3.568,19.641c1.612-4.13,6.95-6.043,13.7-8.461,2.82-1.007,6.043-2.216,9.266-3.626q1.813-.755,3.324-1.511C33.684,4.23,36.2,3.122,37.713,3.122c1.712,0,2.82,1.712,6.043,7.151,2.216,3.626,5.238,8.662,9.971,15.31,8.964,12.59,18.734,17.928,26.49,22.26,8.058,4.532,13.4,7.453,13.3,16.015-.1,4.633-7.453,5.238-11.784,5.238h0C60.174,69.1,16.058,53.08,7.194,35.958,3.367,28.4,2.158,23.065,3.568,19.641Z" transform="translate(10054.092 1763.004) rotate(90)" fill="#fff" opacity="0.348"/>
    <path id="Path_232" data-name="Path 232" d="M34.548,176.364c11.986,12.993,24.274,26.49,43.008,32.735,19.943,6.648,34.245,5.238,49.354,3.827,12.49-1.209,25.483-2.417,42,1.309,14.5,3.324,31.425,15.612,47.843,27.5,19.238,14,37.771,27.3,52.577,27.3a20.189,20.189,0,0,0,11.684-3.525c17.727-12.187,8.058-29.209-3.122-48.951-6.043-10.777-12.389-21.857-15.31-33.54-4.835-19.439-3.324-36.965-1.612-57.21,1.309-14.806,2.619-30.116,1.612-48.246C260.87,44.116,237.6,12.389,227.43,0h-1.309c9.77,11.784,33.641,43.814,35.454,77.556.906,18.029-.4,33.339-1.612,48.044-1.712,20.346-3.223,37.972,1.612,57.613,2.921,11.885,9.266,23.065,15.41,33.843,10.979,19.339,20.447,36.058,3.425,47.641a18.873,18.873,0,0,1-11.079,3.324c-14.5,0-32.835-13.3-51.972-27.094-16.518-11.885-33.54-24.274-48.246-27.6-16.619-3.827-29.713-2.518-42.3-1.309-15.008,1.41-29.209,2.82-48.951-3.727-18.432-6.144-30.72-19.54-42.605-32.432C25.08,164.781,14.6,153.4,0,146.047v1.108C14.2,154.205,24.576,165.385,34.548,176.364Z" transform="translate(10354.848 1344.85) rotate(90)" fill="#fff" opacity="0.348"/>
    <path id="Path_233" data-name="Path 233" d="M71.21,154.709c19.439,30.72,41.5,31.325,64.764,32.03,8.662.2,17.626.5,26.591,2.317,14.6,3.022,29.31,12.087,42.4,20.044,13.094,8.058,24.677,15.209,33.943,15.209a13.955,13.955,0,0,0,7.252-1.914c8.158-4.835,4.13-13.9-2.014-27.6-7.453-16.619-18.634-41.8-15.209-76.246C234.783,58.519,220.581,27.6,195.1,0h-1.41c25.684,27.6,40.087,58.318,34.245,118.55-3.425,34.749,7.856,60.03,15.31,76.851,6.043,13.7,9.77,21.957,2.417,26.288-9.367,5.54-23.67-3.223-40.087-13.3-13.094-8.058-28-17.123-42.706-20.245-9.065-1.914-18.029-2.115-26.792-2.417-22.965-.705-44.721-1.309-63.958-31.526C51.469,121.672,15.31,107.47,0,102.636v1.007C15.31,108.477,50.965,122.679,71.21,154.709Z" transform="translate(10354.948 1344.95) rotate(90)" fill="#fff" opacity="0.348"/>
    <path id="Path_234" data-name="Path 234" d="M77.254,105.355a196.475,196.475,0,0,1,10.777,18.936c8.561,16.619,14.3,27.7,39.282,31.526,13.5,2.115,25.785,6.345,36.663,10.173,11.382,3.928,21.051,7.353,29.209,7.353a21.754,21.754,0,0,0,9.871-2.115c11.18-5.54,8.964-19.741,5.439-43.31-1.813-11.986-4.029-26.792-5.137-44.217C200.94,44.116,173.141,12.389,160.651,0h-1.511c11.986,11.684,40.692,43.713,43.109,83.7,1.007,17.425,3.324,32.332,5.137,44.318,3.525,23.065,5.64,37.066-4.835,42.3-9.569,4.734-22.26.4-38.274-5.238-10.878-3.827-23.267-8.058-36.864-10.173-24.475-3.727-30.116-14.6-38.576-30.922a209.847,209.847,0,0,0-10.777-19.036C64.059,83.5,17.928,74.937,0,72.419v1.007C17.928,75.944,63.455,84.4,77.254,105.355Z" transform="translate(10354.848 1344.95) rotate(90)" fill="#fff" opacity="0.348"/>
    <path id="Path_235" data-name="Path 235" d="M112.2,118.852c7.756,13.195,27.094,23.972,45.526,23.972a41.255,41.255,0,0,0,16.015-3.122c5.036-2.216,8.662-6.345,10.576-12.389,5.842-17.526-3.022-47.742-14.907-68.491C156.925,37.066,135.773,11.079,126.507,0H125.2c8.964,10.677,30.72,37.267,43.31,59.325,11.684,20.547,20.547,50.361,14.806,67.584-1.914,5.741-5.338,9.669-10.072,11.784-21.353,9.266-50.361-3.626-60.232-20.447-8.259-14-34.447-53.584-56.4-67.786C41.3,40.591,13.195,33.943,0,31.324v1.007C13.195,35.051,40.893,41.5,56.1,51.368,77.858,65.469,103.945,104.851,112.2,118.852Z" transform="translate(10354.948 1344.95) rotate(90)" fill="#fff" opacity="0.348"/>
    <path id="Path_236" data-name="Path 236" d="M120.665,82.592c12.49,16.418,21.957,28.806,30.72,28.806a8.03,8.03,0,0,0,3.425-.705c1.712-.705,3.827-2.417,4.029-6.95.705-10.576-8.763-33.037-23.367-56C122.377,27.094,107.873,10.374,94.376,0H89.24c14,9.77,29.612,27.3,43.713,49.454,14.1,22.058,23.468,44.318,22.864,54.188-.1,2.417-.906,3.827-2.115,4.331C145.946,111,135.874,97.7,122.981,80.779c-10.576-13.9-23.77-31.224-40.188-45.325C54.188,10.677,15.813,6.849,0,6.345V9.367c15.511.5,52.879,4.23,80.88,28.3C97,51.67,110.089,68.793,120.665,82.592Z" transform="translate(10354.948 1344.95) rotate(90)" fill="#fff" opacity="0.348"/>
    <path id="Path_237" data-name="Path 237" d="M35.253,100.722a1.456,1.456,0,0,0,.705-.2c3.525-1.612,1.108-15.612-3.525-40.188C28.706,40.591,24.173,16.518,24.375.1H23.367c-.2,16.619,4.331,40.692,8.058,60.433,3.626,19.439,7.051,37.771,4.13,39.08-.6.3-2.115,0-5.842-4.935C11.784,71.714,3.223,17.123,1.007,0H0C2.317,17.022,10.878,72.117,29.008,95.283,31.727,99.01,33.742,100.722,35.253,100.722Z" transform="translate(10355.049 1739.679) rotate(90)" fill="#fff" opacity="0.348"/>
    <path id="Path_238" data-name="Path 238" d="M4.2,488.3c-6.748-38.778-.3-45.929,2.82-47.138,4.331-1.712,10.878,3.425,18.029,14.1,12.288,18.331,53.08,73.628,97.2,73.628a49.247,49.247,0,0,0,13.094-1.712c28-7.353,49.857-44.62,69.1-77.556,12.993-22.26,25.281-43.21,37.569-51.469,15.108-10.274,42.2-4.331,73.527,2.518,30.519,6.748,65.167,14.3,95.182,7.655,25.483-5.64,41.7-21.353,48.145-46.735,5.439-21.252,3.022-45.023,1.41-60.735l-.2-2.518c-1.511-15.108,11.885-20.648,28.907-27.6,17.324-7.151,37.066-15.209,47.843-35.857,23.065-44.015,25.281-94.477,6.144-138.694-11.482-26.389-12.792-45.325-4.23-59.829C549.7,17.727,577.4,6.144,623.232,1.007V0C577.1,5.238,549.1,17.022,537.92,35.857c-8.763,14.806-7.453,34.145,4.13,60.735,19.036,43.915,16.821,94.074-6.144,137.787-10.677,20.346-30.116,28.3-47.339,35.353-16.72,6.849-31.123,12.792-29.512,28.605l.2,2.518c1.612,15.612,3.928,39.282-1.41,60.332-6.345,24.979-22.259,40.49-47.44,46.03-29.814,6.547-64.361-1.007-94.779-7.655-31.526-6.95-58.822-12.892-74.333-2.417-12.389,8.461-24.778,29.512-37.871,51.771-19.137,32.735-40.893,69.8-68.491,77.052C86.586,538.66,39.045,474.5,25.649,454.457c-7.554-11.281-14.4-16.418-19.238-14.4C-.74,442.874-1.949,460.1,2.987,488.3c6.345,36.461,6.345,55.3,5.741,63.354H9.735C10.641,543.7,10.641,524.962,4.2,488.3Z" transform="translate(10307.206 1569.595) rotate(90)" fill="#fff" opacity="0.348"/>
    <path id="Path_239" data-name="Path 239" d="M38.375,39.08c14.4,7.554,24.979,15.31,33.44,21.554C83.5,69.3,91.858,75.441,102.031,75.441a31.453,31.453,0,0,0,12.59-2.921c6.95-3.022,12.892-7.655,19.842-13.195,17.929-14.2,40.087-31.828,96.592-32.533V25.785c-56.908.806-80.074,19.137-97.2,32.735-6.849,5.439-12.691,10.072-19.641,12.993-16.317,6.95-25.986-.1-41.9-11.784-8.561-6.245-19.137-14.1-33.641-21.655C10.274,23.166,2.921,7.756,1.108,0H0C1.612,7.856,8.863,23.569,38.375,39.08Z" transform="translate(10354.948 1961.771) rotate(90)" fill="#fff" opacity="0.348"/>
    <path id="Path_240" data-name="Path 240" d="M23.367,30.72c14.806,7.453,27.195,12.087,38.778,12.087,10.274,0,19.943-3.626,30.217-12.288,9.468-7.957,28-11.885,46.03-15.713C156.22,11.079,173.242,7.453,181.6,0h-5.036c-8.662,5.54-23.871,8.763-38.778,11.885C119.456,15.813,100.52,19.842,90.448,28.2,69.8,45.526,52.174,41.7,24.677,28,5.54,18.533,2.82,6.446,2.921,0H0C0,7.353,3.122,20.648,23.367,30.72Z" transform="translate(10354.948 2004.175) rotate(90)" fill="#fff" opacity="0.348"/>
    <path id="Path_241" data-name="Path 241" d="M36.058,24.778C53.08,24.778,67.786,8.36,74.232,0H72.923C66.376,8.461,52.275,23.77,36.058,23.77S7.051,8.36,1.209,0H0C5.741,8.461,19.036,24.778,36.058,24.778Z" transform="translate(10354.948 2029.758) rotate(90)" fill="#fff" opacity="0.348"/>
    <path id="Path_242" data-name="Path 242" d="M24.317,15.529C14.95,5.961,8.7-.385,4.575.018A3.553,3.553,0,0,0,1.956,1.63C-4.59,10.9,6.993,46.249,11.827,59.847h1.108C8.3,46.652-3.382,11.1,2.863,2.234A2.665,2.665,0,0,1,4.777,1.025C8.4.723,15.151,7.572,23.712,16.234c13.3,13.5,32.231,32.735,56.4,43.613h2.518C57.454,49.17,37.914,29.429,24.317,15.529Z" transform="translate(9815.197 1592.683) rotate(90)" fill="#fff" opacity="0.348"/>
    <path id="Path_243" data-name="Path 243" d="M357.865,47.51c-32.13-28.2-79.268-24.173-113.715-21.152-3.223.3-6.446.5-9.468.806-27.9,2.115-54.088-7.353-77.153-15.713C136.68,3.9,118.751-2.649,104.348,1.077,77.354,8.027,63.757,37.236,49.354,68.259c-1.813,3.928-3.727,8.058-5.64,11.986C31.224,106.332,9.569,126.577,0,134.735H4.633c10.677-9.468,30.116-28.806,41.8-53.181,1.914-4.029,3.827-8.158,5.64-12.087C66.174,39.15,79.57,10.646,105.154,4c13.5-3.525,31.123,2.921,51.368,10.274,23.367,8.461,49.857,18.13,78.462,15.914,3.022-.2,6.144-.5,9.468-.806,33.843-2.921,80.275-6.849,111.5,20.447,19.842,17.425,31.324,45.929,33.943,84.908h3.022C390.2,94.849,378.412,65.539,357.865,47.51Z" transform="translate(9890.086 1736.96) rotate(90)" fill="#fff" opacity="0.348"/>
    <path id="Path_244" data-name="Path 244" d="M208.8,29.25c-9.971.4-20.144.806-29.612.5-26.49-.705-47.742-10.072-66.476-18.231-9.367-4.13-18.231-7.957-26.691-10.374A26.442,26.442,0,0,0,64.966,3.566C48.951,12.631,39.584,37.006,34.548,55.74,28.2,79.309,9.669,97.439,0,105.6H1.511c9.971-8.561,27.7-26.49,33.943-49.656,5.036-18.634,14.3-42.706,29.914-51.57A25.735,25.735,0,0,1,85.614,2.055C94.074,4.473,102.938,8.3,112.2,12.43c18.835,8.259,40.188,17.727,66.879,18.331,9.468.2,19.741-.1,29.713-.5,32.13-1.209,65.469-2.417,82.491,16.418,17.425,19.238,20.547,47.541,21.051,59.023h1.007c-.5-11.583-3.727-40.188-21.353-59.627C274.769,26.732,241.229,27.941,208.8,29.25Z" transform="translate(9860.948 1782.587) rotate(90)" fill="#fff" opacity="0.348"/>
    <path id="Path_245" data-name="Path 245" d="M216.955,24.282c-12.993-2.82-29.109-2.216-46.03-1.712-24.576.907-52.476,1.813-76.649-7.554-2.921-1.108-5.64-2.216-8.36-3.324C62.951,2.627,47.843-3.417,36.663,2.123,29.914,5.447,25.18,12.8,21.655,25.39,14.3,51.275,4.734,68.4,0,75.851H3.626c5.036-8.259,13.9-24.878,20.95-49.555C27.9,14.613,32.13,7.864,38.073,4.943,48.044.008,62.75,5.85,84.909,14.613c2.719,1.108,5.439,2.216,8.36,3.324,24.677,9.669,52.98,8.662,77.858,7.756,16.821-.6,32.634-1.108,45.325,1.611,24.173,5.238,27.8,36.159,28.2,48.548h3.022C247.071,62.858,243.142,29.922,216.955,24.282Z" transform="translate(9831.102 1819.753) rotate(90)" fill="#fff" opacity="0.348"/>
    <path id="Path_246" data-name="Path 246" d="M114.319,20.967c-5.338,0-10.878-.1-16.821-.2-31.425-.5-49.857-9.468-62.045-15.41C25.684.52,19.742-2.3,14.1,2.434,4.23,10.592.907,37.183,0,48.464H1.007C2.014,37.284,5.439,11,14.806,3.24c5.137-4.331,10.878-1.511,20.245,3.122C47.339,12.3,65.872,21.37,97.5,21.974c5.943.1,11.482.1,16.821.2,29.612.2,49.152.4,57.915,9.77,3.626,3.827,5.439,9.166,5.64,16.619h1.007c-.2-7.655-2.115-13.3-5.943-17.324C163.874,21.269,144.234,21.168,114.319,20.967Z" transform="translate(9803.714 1858.028) rotate(90)" fill="#fff" opacity="0.348"/>
    <path id="Path_247" data-name="Path 247" d="M122.087,8.4c-3.727-3.022-9.77-2.317-19.943-1.108C95.6,8,87.438,8.907,77.366,9.108A175.389,175.389,0,0,1,26.4,3.166C21.163,1.856,16.732.849,12.1.144c-4.029-.5-7.051.3-9.065,2.619C.415,5.583-.089,10.015.012,13.54H1.019c-.1-3.324.3-7.554,2.719-10.072C5.552,1.453,8.372.748,12,1.151c4.532.6,9.065,1.712,14.2,2.921a177.8,177.8,0,0,0,51.267,5.943A233.121,233.121,0,0,0,102.345,8.1c9.871-1.108,15.813-1.813,19.137.907a8.922,8.922,0,0,1,2.72,4.331h1.108A10.568,10.568,0,0,0,122.087,8.4Z" transform="translate(9768.891 1887.124) rotate(90)" fill="#fff" opacity="0.348"/>
    <path id="Path_248" data-name="Path 248" d="M39.223,397.552c-17.425-3.022-32.432-5.64-36.562-14.5-4.734-10.374,1.712-21.051,9.166-33.54,6.547-10.777,13.9-23.065,14.4-36.864a143.962,143.962,0,0,0-.907-20.144c-1.813-19.439-3.022-33.54,22.159-43.512l1.612-.6c32.533-12.792,58.217-22.864,68.39-87.829,5.64-36.461-.705-64.261-5.741-86.621C107.513,55.4,104.189,40.8,108.218,27c7.051-23.77,41.5-26.087,56.706-25.986V0c-15.41-.1-50.462,2.317-57.613,26.691-4.13,14.1-.6,29.612,3.425,47.541,5.036,22.26,11.382,50.059,5.741,86.319-10.072,64.261-34.245,73.829-67.685,87.024l-1.612.6C21.295,258.354,22.7,273.563,24.417,292.7a142.523,142.523,0,0,1,.907,20.044c-.5,13.6-7.756,25.684-14.3,36.461-7.655,12.691-14.3,23.569-9.266,34.447,4.331,9.367,19.641,12.087,37.267,15.108,21.454,3.727,45.728,7.957,61.138,24.475,23.67,25.382,30.519,76.951,32.231,93.47H133.4c-1.611-16.418-8.561-68.491-32.432-94.175C85.253,405.61,59.771,401.178,39.223,397.552Z" transform="translate(10271.855 2028.004) rotate(90)" fill="#fff" opacity="0.348"/>
    <path id="Path_249" data-name="Path 249" d="M103.206,7.151c-6.043,4.935-9.367,12.288-9.569,21.756-.3,11.583,2.82,24.576,6.547,39.584,6.95,28,15.511,62.951.705,100.017C88.3,200.235,71.176,208.8,56.068,216.351c-11.684,5.842-21.756,10.878-27.094,25.08a145.1,145.1,0,0,0-7.957,30.72C19.3,282.726,18.1,290.381,8.829,303.273c-8.058,11.281-10.576,20.346-7.655,27.8,3.223,8.259,13.094,14.1,30.116,17.626l1.612.3c28.5,5.943,74.333,15.511,94.779,90.448V429.176c-8.461-25.583-20.849-45.325-37.066-58.822-19.842-16.518-41.4-20.95-57.109-24.274l-1.612-.3c-15.713-3.324-25.08-8.561-27.9-15.813-2.518-6.345,0-14.705,7.353-24.979,9.669-13.4,10.979-21.756,12.691-32.432a141.828,141.828,0,0,1,7.756-30.116c4.935-13.094,14.5-17.928,25.684-23.468,14.806-7.453,33.238-16.619,46.332-49.454,15.108-37.972,6.446-73.426-.6-101.931-3.626-14.806-6.748-27.6-6.446-38.778.3-8.662,3.122-15.209,8.461-19.54,6.748-5.439,16.216-6.345,22.562-6.245V0C120.832.1,110.659,1.108,103.206,7.151Z" transform="translate(10234.687 2065.247) rotate(90)" fill="#fff" opacity="0.348"/>
    <path id="Path_250" data-name="Path 250" d="M36.914,29.31C20.295,48.044,10.122,70.707,5.489,82.592-.252,97.4-1.36,105.355,1.561,110.895c4.13,7.856,16.015,10.677,37.771,16.015l5.238,1.309c21.857,5.338,33.641,22.562,39.886,37.67v-2.518c-6.547-14.806-18.432-31.022-39.684-36.159L39.533,125.9c-21.454-5.238-33.238-8.058-37.166-15.511C-.454,105.053.654,97.4,6.294,82.894,13.144,65.268,38.324,9.468,84.354,1.007V0C67.332,3.122,51.317,12.892,36.914,29.31Z" transform="translate(10031.128 2108.372) rotate(90)" fill="#fff" opacity="0.348"/>
    <path id="Path_251" data-name="Path 251" d="M7.682,34.951C.229,49.454-1.685,59.124,1.437,65.57c3.425,6.95,12.59,9.569,21.957,11.382,11.785,2.216,20.849,10.576,26.49,17.425V92.866C44.043,86.016,35.179,78.16,23.5,75.944,11.006,73.527,4.862,70.4,2.243,65.167-.779,59.023,1.236,49.555,8.488,35.454,19.164,14.5,39.107,4.935,49.884,1.108V0C39.107,3.727,18.661,13.5,7.682,34.951Z" transform="translate(10001.414 2142.943) rotate(90)" fill="#fff" opacity="0.348"/>
    <path id="Path_252" data-name="Path 252" d="M.043,28C-.864,37.166,12.835,43.31,21.6,46.231V45.123C13.036,42.2.244,36.361,1.05,28.1S13.54,8.36,21.6,1.309V0C13.439,6.95.849,19.137.043,28Z" transform="translate(9978.248 2171.331) rotate(90)" fill="#fff" opacity="0.348"/>
  </g>
</svg>
