<svg class="svg" xmlns="http://www.w3.org/2000/svg" xmlns:xlink="http://www.w3.org/1999/xlink" width="120" height="120" viewBox="0 0 160 120"><defs><filter id="a" x="-9" y="-6" width="178" height="348" filterUnits="userSpaceOnUse"><feOffset dy="3" input="SourceAlpha"/><feGaussianBlur stdDeviation="3" result="b"/><feFlood flood-opacity="0.161"/><feComposite operator="in" in2="b"/><feComposite in="SourceGraphic"/></filter><clipPath id="c"><g transform="matrix(1, 0, 0, 1, 0, 0)" filter="url(#a)"><rect width="160" height="330" fill="none"/></g></clipPath><filter id="d" x="-9" y="-47.88" width="178" height="389.885" filterUnits="userSpaceOnUse"><feOffset dy="3" input="SourceAlpha"/><feGaussianBlur stdDeviation="3" result="e"/><feFlood flood-opacity="0.161"/><feComposite operator="in" in2="e"/><feComposite in="SourceGraphic"/></filter></defs><g transform="translate(-263 -2761)"><g transform="translate(263 2761)"><g clip-path="url(#c)"><g transform="matrix(1, 0, 0, 1, 0, 0)" filter="url(#d)"><rect width="160" height="371.885" transform="translate(0 -41.88)" fill="#ffce99"/></g><path d="M14.93,100.681,31.47,88.2,46.1,94.418,63.5,57.562,79.752,88.2,94.906,36.46l21.368,47.455L128.608,54.96l6.74,13.586,5.641-3.758L155,92.346l10.087-8.431,9.848,14.646v80.6h-160Z" transform="translate(-14.93 97.312)" fill="#ffe7cc"/><path d="M19.864,47.2,18,50.958,21.49,48.5,18,55.487,24.549,49.8,18,60.16l10.517-9.3-4.876,6.7,7.935-5.348L28.134,57.56l6.358-4.143Z" transform="translate(-3.324 138.315)" fill="#f3a95a"/><path d="M25.09,40.84v4.481l1.864.964L26,48.838l2.82-1.012-3.059,3.71,4.3-1.349L26,56.257l5.306-3.71-4.924,7.13,6.6-3.951L27.91,64.014l5.976-4.529-6.358,9.78,8.6-5.637L29.106,73.794l9.178-6.022L25.09,85.212,41.343,71.481Z" transform="translate(23.479 114.034)" fill="#f3a95a"/><path d="M14.93,58.075,28.793,47.62V58.075Z" transform="translate(-14.93 139.918)" fill="#fff"/><path d="M21.69,73.32,36.844,41.33l1.1,28.28-2.82,10.358L31.777,65.323Z" transform="translate(10.625 115.904)" fill="#fff"/><path d="M42.4,37.36,28.49,84.767l7.6-7.275L43.644,89.44l4.78-8.961Z" transform="translate(36.332 100.748)" fill="#fff"/><path d="M51.236,40.98,40.288,66.659,35.03,81.3l10.852-9.25,12.19,11.37,5.593-31.364-11.808,9.93Z" transform="translate(61.056 114.568)" fill="#fff"/><path d="M57.727,46.62l-8.318,6.938L42.86,61.892,57.727,57.7Z" transform="translate(90.657 136.1)" fill="#fff"/><path d="M31.66,36.46V42.1h1.721L31.66,46.047l4.063-.674L32.95,51.154l4.255-2.409L33.238,54.96l5.976-1.783-4.446,8.19,6.406-3.806-5.689,9.3,5.689-5.492L36.44,71.823l6.6-4.962-6.6,9.346,8.844-4.673L38.5,80.591l9.274-4.673L36.44,90.323l14.485-7.9L37.014,98.561l13.481-7.612,2.534-7.034Z" transform="translate(48.316 97.312)" fill="#f3a95a"/><path d="M38.71,40.3v3.854l1.625-.578L38.71,47.527l2.534-2.072L38.71,50.947l3.39-2.023-3.39,7.082L43.347,52.2,38.71,61.835l6.74-7.949Z" transform="translate(74.968 111.972)" fill="#f3a95a"/><path d="M43.19,42.34v4.77h1.386l-2.1,3.951,3.2-1.831-3.824,7.082,5.545-4-5.545,8.913,7.792-4.24-4.78,6.793,7.744-2.842L40.8,72.981l14.054-7.708-5.928,7.708L57.2,69.9Z" transform="translate(82.869 119.76)" fill="#f3a95a"/><path d="M46.34,46.31v3.324h2.247l-2.247,4.1h5.019L46.34,60.378l7.744-2.553L47.774,68.28h8.414V60.956Z" transform="translate(103.812 134.917)" fill="#f3a95a"/><path d="M14.55,52.534,62.163,50.8l126.68,15.272,83.9,3.854v72.459H14.55Z" transform="translate(-16.367 152.059)" fill="#cfe6c6"/><path d="M69.989,54.11l2.581,7.323H67.36Z" transform="translate(183.276 164.695)" fill="#cfe6c6"/><path d="M70.476,53.42l4.016,11.418H66.46Z" transform="translate(179.874 162.061)" fill="#cfe6c6"/><path d="M69.152,53.66l3.012,8.576H66.14Z" transform="translate(178.664 162.977)" fill="#cfe6c6"/><path d="M68.761,53.75l3.2,9.106H65.51Z" transform="translate(176.283 163.321)" fill="#cfe6c6"/><path d="M67.549,53.97l2.581,7.371H64.92Z" transform="translate(174.052 164.161)" fill="#cfe6c6"/><path d="M66.934,53.87l2.534,7.178H64.4Z" transform="translate(172.086 163.779)" fill="#cfe6c6"/><path d="M67.781,53.39,72.37,66.35H63.24Z" transform="translate(167.701 161.947)" fill="#cfe6c6"/><path d="M66.257,53.4,69.8,63.421H62.72Z" transform="translate(165.735 161.985)" fill="#cfe6c6"/><path d="M66.192,53.36l4.3,12.189h-8.6Z" transform="translate(162.598 161.832)" fill="#cfe6c6"/><path d="M65.438,53.32l3.968,11.225H61.47Z" transform="translate(161.01 161.679)" fill="#cfe6c6"/><path d="M63.625,53.58l2.725,7.757H60.9Z" transform="translate(158.855 162.672)" fill="#cfe6c6"/><path d="M63.846,53.23l3.968,11.322H59.83Z" transform="translate(154.81 161.336)" fill="#cfe6c6"/><path d="M62.937,53.17l3.777,10.744H59.16Z" transform="translate(152.277 161.107)" fill="#cfe6c6"/><path d="M63.077,52.83l4.637,13.153H58.44Z" transform="translate(149.555 159.809)" fill="#cfe6c6"/><path d="M60.5,53.61l2.056,5.829H58.44Z" transform="translate(149.555 162.787)" fill="#cfe6c6"/><path d="M61.033,53.1l3.585,10.262H57.4Z" transform="translate(145.624 160.84)" fill="#cfe6c6"/><path d="M59.757,53.32l2.677,7.612H57.08Z" transform="translate(144.414 161.679)" fill="#cfe6c6"/><path d="M59.522,53.29l3.442,9.78H56.08Z" transform="translate(140.633 161.565)" fill="#cfe6c6"/><path d="M59.685,52.88,64.37,66.129H55Z" transform="translate(136.551 160)" fill="#cfe6c6"/><path d="M57.323,53.33l2.725,7.853h-5.5Z" transform="translate(134.849 161.718)" fill="#cfe6c6"/><path d="M57.742,52.86l4.3,12.189h-8.6Z" transform="translate(130.653 159.923)" fill="#cfe6c6"/><path d="M56.433,53.17l3.681,10.406H52.8Z" transform="translate(128.234 161.107)" fill="#cfe6c6"/><path d="M55.621,53.02,59.3,63.52H51.94Z" transform="translate(124.983 160.534)" fill="#cfe6c6"/><path d="M55.813,52.69l4.733,13.442H51.08Z" transform="translate(121.731 159.274)" fill="#cfe6c6"/><path d="M54.591,52.63l4.063,11.611H50.48Z" transform="translate(119.463 159.045)" fill="#cfe6c6"/><path d="M53.272,52.85l3.442,9.78H49.83Z" transform="translate(117.006 159.885)" fill="#cfe6c6"/><path d="M51.862,53.28l2.295,6.6H49.52Z" transform="translate(115.834 161.527)" fill="#cfe6c6"/><path d="M52.989,52.36l4.589,13.008H48.4Z" transform="translate(111.6 158.014)" fill="#cfe6c6"/><path d="M51.094,52.75l2.964,8.431H48.13Z" transform="translate(110.579 159.503)" fill="#cfe6c6"/><path d="M49.631,52.86l2.151,6.167h-4.3Z" transform="translate(108.122 159.923)" fill="#cfe6c6"/><path d="M49.568,52.83l2.868,8.094H46.7Z" transform="translate(105.173 159.809)" fill="#cfe6c6"/><path d="M49.483,52.4l3.633,10.214H45.85Z" transform="translate(101.96 158.167)" fill="#cfe6c6"/><path d="M49.337,52.3,53.5,64.152H45.13Z" transform="translate(99.238 157.785)" fill="#cfe6c6"/><path d="M48.986,52.11l4.446,12.623H44.54Z" transform="translate(97.008 157.06)" fill="#cfe6c6"/><path d="M46.9,52.53l2.725,7.66H44.17Z" transform="translate(95.609 158.663)" fill="#cfe6c6"/><path d="M46.364,52.19l2.916,8.287H43.4Z" transform="translate(92.698 157.365)" fill="#cfe6c6"/><path d="M45.74,52.17l2.82,8H42.92Z" transform="translate(90.883 157.289)" fill="#cfe6c6"/><path d="M46.76,51.62l4.733,13.442H41.98Z" transform="translate(87.33 155.189)" fill="#cfe6c6"/><path d="M44.937,52.08,48,60.8H41.83Z" transform="translate(86.763 156.945)" fill="#cfe6c6"/><path d="M44.352,51.91l3.012,8.528H41.34Z" transform="translate(84.91 156.296)" fill="#cfe6c6"/><path d="M44.387,51.75l3.824,10.792h-7.6Z" transform="translate(82.151 155.686)" fill="#cfe6c6"/><path d="M42.14,52.3l2.008,5.589H40.18Z" transform="translate(80.525 157.785)" fill="#cfe6c6"/><path d="M42.749,51.44,46.43,61.9H39.02Z" transform="translate(76.14 154.502)" fill="#cfe6c6"/><path d="M41.444,51.6l2.964,8.383H38.48Z" transform="translate(74.098 155.113)" fill="#cfe6c6"/><path d="M41.42,51.17,45.388,62.4H37.5Z" transform="translate(70.394 153.471)" fill="#cfe6c6"/><path d="M39.71,51.49l2.82,8.046H36.89Z" transform="translate(68.088 154.693)" fill="#cfe6c6"/><path d="M38.929,51.39l2.629,7.516H36.3Z" transform="translate(65.857 154.311)" fill="#cfe6c6"/><path d="M39.422,50.76,43.725,63h-8.6Z" transform="translate(61.396 151.906)" fill="#cfe6c6"/><path d="M38.128,50.93l3.49,10.021H34.59Z" transform="translate(59.393 152.555)" fill="#cfe6c6"/><path d="M38.235,50.67l4.637,13.249H33.55Z" transform="translate(55.461 151.562)" fill="#cfe6c6"/><path d="M36.874,50.75l3.872,10.936h-7.7Z" transform="translate(53.571 151.868)" fill="#cfe6c6"/><path d="M36.645,50.6,40.9,62.741H32.39Z" transform="translate(51.076 151.295)" fill="#cfe6c6"/><path d="M34.3,51.12l2.053,5.78H32.29Z" transform="translate(50.698 153.28)" fill="#cfe6c6"/><path d="M34.963,50.57l3.681,10.31H31.33Z" transform="translate(47.069 151.181)" fill="#cfe6c6"/><path d="M34.847,50.54,39.1,62.488H30.64Z" transform="translate(44.46 151.066)" fill="#cfe6c6"/><path d="M33.288,50.71l3.251,9.347H29.99Z" transform="translate(42.003 151.715)" fill="#cfe6c6"/><path d="M32.3,50.56l2.964,8.479H29.34Z" transform="translate(39.546 151.142)" fill="#cfe6c6"/><path d="M31.756,50.45l2.868,8.238H28.84Z" transform="translate(37.655 150.722)" fill="#cfe6c6"/><path d="M30.718,50.59l2.39,6.841H28.28Z" transform="translate(35.538 151.257)" fill="#cfe6c6"/><path d="M31.324,49.98l3.824,10.888L27.5,60.82Z" transform="translate(32.59 148.928)" fill="#cfe6c6"/><path d="M29.868,50.41l2.82,8.046H27Z" transform="translate(30.699 150.57)" fill="#cfe6c6"/><path d="M30.048,49.78l3.92,11.177H26.08Z" transform="translate(27.221 148.164)" fill="#cfe6c6"/><path d="M29.349,49.66l4.159,11.755H25.19Z" transform="translate(23.857 147.706)" fill="#cfe6c6"/><path d="M27.421,50.26,30,57.583H24.84Z" transform="translate(22.534 149.997)" fill="#cfe6c6"/><path d="M27.108,50.14l2.868,8.094H24.24Z" transform="translate(20.266 149.539)" fill="#cfe6c6"/><path d="M27.342,49.61l3.92,11.081H23.47Z" transform="translate(17.355 147.515)" fill="#cfe6c6"/><path d="M26.167,49.92l3.155,8.865H23.06Z" transform="translate(15.805 148.699)" fill="#cfe6c6"/><path d="M26,49.63l3.824,10.84H22.18Z" transform="translate(12.478 147.592)" fill="#cfe6c6"/><path d="M25.271,49.92l3.681,10.406H21.59Z" transform="translate(10.247 148.699)" fill="#cfe6c6"/><path d="M24.847,49.87l3.729,10.647H21.07Z" transform="translate(8.282 148.508)" fill="#cfe6c6"/><path d="M24.028,49.88l3.537,9.973H20.49Z" transform="translate(6.089 148.546)" fill="#cfe6c6"/><path d="M23.225,49.81,26.81,60.024H19.64Z" transform="translate(2.876 148.279)" fill="#cfe6c6"/><path d="M21.873,50.2,24.6,58H19.1Z" transform="translate(0.834 149.768)" fill="#cfe6c6"/><path d="M22.146,49.89l4.016,11.418H18.13Z" transform="translate(-2.833 148.584)" fill="#cfe6c6"/><path d="M20.345,50.26l2.725,7.66H17.62Z" transform="translate(-4.761 149.997)" fill="#cfe6c6"/><path d="M19.764,50.12l2.964,8.38H16.8Z" transform="translate(-7.861 149.463)" fill="#cfe6c6"/><path d="M19.216,50.12l3.346,9.443H15.87Z" transform="translate(-11.376 149.463)" fill="#cfe6c6"/><path d="M18.556,50.09,21.9,59.581H15.21Z" transform="translate(-13.871 149.348)" fill="#cfe6c6"/><path d="M17.128,50.54l2.39,6.841H14.69Z" transform="translate(-15.837 151.066)" fill="#cfe6c6"/><path d="M258.189,178.924V56.7l-66.83-2.457L13.672,75.583,0,76.209V178.924Z" transform="translate(-71.371 165.192)" fill="#b7c268"/><path d="M0,59.6v4.673H1.673Z" transform="translate(-71.371 185.655)" fill="#b7c268"/><path d="M0,72H7.41L2.247,57.35,0,63.661Z" transform="translate(-71.371 177.065)" fill="#b7c268"/><path d="M0,75.718H13.146L6.5,56.88,0,75.284Z" transform="translate(-71.371 175.271)" fill="#b7c268"/><path d="M6.926,56.79,1.19,73.074H12.711Z" transform="translate(-66.873 174.927)" fill="#b7c268"/><path d="M7.356,57.12,2.48,70.8h9.7Z" transform="translate(-61.996 176.187)" fill="#b7c268"/><path d="M6.831,57.72,3.58,66.92h6.5Z" transform="translate(-57.838 178.478)" fill="#b7c268"/><path d="M10.274,56.42,3.82,74.631H16.679Z" transform="translate(-56.93 173.515)" fill="#b7c268"/><path d="M9.357,56.96,5.15,68.812h8.366Z" transform="translate(-51.902 175.576)" fill="#b7c268"/><path d="M9.552,57.12,6.54,65.744h6.071Z" transform="translate(-46.648 176.187)" fill="#b7c268"/><path d="M11.236,57.08,7.22,68.45l7.98-.05Z" transform="translate(-44.077 176.034)" fill="#b7c268"/><path d="M13.027,56.47,7.96,70.827H18.142Z" transform="translate(-41.279 173.705)" fill="#b7c268"/><path d="M14.482,56.34,8.65,72.913H20.362Z" transform="translate(-38.671 173.209)" fill="#b7c268"/><path d="M15.582,56.07,9.32,73.751H21.845Z" transform="translate(-36.138 172.178)" fill="#b7c268"/><path d="M14.637,56.66,10.86,67.36h7.553Z" transform="translate(-30.316 174.431)" fill="#b7c268"/><path d="M15.921,56.18,11.81,67.791h8.174Z" transform="translate(-26.725 172.598)" fill="#b7c268"/><path d="M16.508,56.15,12.54,67.375h7.935Z" transform="translate(-23.965 172.484)" fill="#b7c268"/><path d="M19.423,55.38,12.73,74.266H26.067Z" transform="translate(-23.247 169.544)" fill="#b7c268"/><path d="M18.27,56.02,13.92,68.305h8.653Z" transform="translate(-18.748 171.987)" fill="#b7c268"/><path d="M18.857,55.79l-4.207,12h8.461Z" transform="translate(-15.989 171.109)" fill="#b7c268"/><path d="M20.564,55.57,15.21,70.7H25.918Z" transform="translate(-13.871 170.269)" fill="#b7c268"/><path d="M19.663,56.33,16.89,64.183h5.545Z" transform="translate(-7.52 173.171)" fill="#b7c268"/><path d="M22.673,55.13,17.51,69.776H27.836Z" transform="translate(-5.177 168.59)" fill="#b7c268"/><path d="M22.859,55.36,18.7,67.067h8.27Z" transform="translate(-0.678 169.468)" fill="#b7c268"/><path d="M25,54.76,19.5,70.418H30.543Z" transform="translate(2.346 167.177)" fill="#b7c268"/><path d="M24.978,55.21,21.01,66.435H28.9Z" transform="translate(8.055 168.895)" fill="#b7c268"/><path d="M25.669,55.07,21.94,65.57H29.4Z" transform="translate(11.571 168.361)" fill="#b7c268"/><path d="M28.691,54.19,22.62,71.29H34.714Z" transform="translate(14.141 165.001)" fill="#b7c268"/><path d="M28.792,54.42,23.82,68.44h9.9Z" transform="translate(18.678 165.879)" fill="#b7c268"/><path d="M31.159,54.06,24.61,72.56h13.1Z" transform="translate(21.664 164.505)" fill="#b7c268"/><path d="M31.2,54.17,25.8,69.491H36.6Z" transform="translate(26.163 164.925)" fill="#b7c268"/><path d="M32.456,53.96,26.48,70.919H38.431Z" transform="translate(28.734 164.123)" fill="#b7c268"/><path d="M30.8,54.68l-2.87,8.094h5.689Z" transform="translate(34.215 166.872)" fill="#b7c268"/><path d="M33.435,53.91,28.32,68.41H38.55Z" transform="translate(35.69 163.932)" fill="#b7c268"/><path d="M34.84,53.87,28.96,70.588H40.768Z" transform="translate(38.109 163.779)" fill="#b7c268"/><path d="M35.009,54.12,30.42,67.128H39.6Z" transform="translate(43.628 164.734)" fill="#b7c268"/><path d="M35.679,53.91,31.52,65.71h8.366Z" transform="translate(47.787 163.932)" fill="#b7c268"/><path d="M36.323,53.75,32.26,65.313h8.127Z" transform="translate(50.584 163.321)" fill="#b7c268"/><path d="M36.676,53.95,33.33,63.489h6.74Z" transform="translate(54.629 164.085)" fill="#b7c268"/><path d="M38.954,53.09,33.6,68.314H44.356Z" transform="translate(55.65 160.801)" fill="#b7c268"/><path d="M38.838,53.69,34.87,64.964h7.935Z" transform="translate(60.451 163.092)" fill="#b7c268"/><path d="M41.017,52.81l-5.5,15.658H46.563Z" transform="translate(62.908 159.732)" fill="#b7c268"/><path d="M42.434,52.64,36.65,69.117H48.266Z" transform="translate(67.18 159.083)" fill="#b7c268"/><path d="M41.645,53.48,38.06,63.694h7.218Z" transform="translate(72.511 162.29)" fill="#b7c268"/><path d="M42.708,53.32,38.74,64.642h7.983Z" transform="translate(75.081 161.679)" fill="#b7c268"/><path d="M44.66,52.57,39.21,68.035H50.157Z" transform="translate(76.858 158.816)" fill="#b7c268"/><path d="M44.638,53l-4.4,12.43h8.8Z" transform="translate(80.752 160.458)" fill="#b7c268"/><path d="M46.414,52.6,41.06,67.776H51.768Z" transform="translate(83.852 158.931)" fill="#b7c268"/><path d="M47.143,53,41.98,67.6H52.258Z" transform="translate(87.33 160.458)" fill="#b7c268"/><path d="M47.918,52.93,42.66,67.865H53.225Z" transform="translate(89.9 160.19)" fill="#b7c268"/><path d="M48.572,52.94,43.6,66.96h9.9Z" transform="translate(93.454 160.229)" fill="#b7c268"/><path d="M49.779,52.85,44.76,67.111H54.847Z" transform="translate(97.839 159.885)" fill="#b7c268"/><path d="M49.882,53.39,46.01,64.326h7.744Z" transform="translate(102.565 161.947)" fill="#b7c268"/><path d="M52.271,52.97,46.63,68.917H57.912Z" transform="translate(104.909 160.343)" fill="#b7c268"/><path d="M51.934,53.48,48.11,64.224h7.6Z" transform="translate(110.504 162.29)" fill="#b7c268"/><path d="M53.231,53.29,49.12,65.045,57.39,65Z" transform="translate(114.322 161.565)" fill="#b7c268"/><path d="M54.885,53.29,50.2,66.491h9.37Z" transform="translate(118.405 161.565)" fill="#b7c268"/><path d="M55.8,53.25l-4.685,13.3h9.417Z" transform="translate(121.883 161.412)" fill="#b7c268"/><path d="M55.746,53.88,52.4,63.419h6.74Z" transform="translate(126.722 163.817)" fill="#b7c268"/><path d="M14.93,65.733l4.016-4.1,2.677,4.143,2.39-2.072,1.673,1.156.956-3.228,2.151,1.06L31.04,58.94l2.151,3.035,2.868-2.746,1.817,5.251,4.016-.289,2.486,3.228h2.868l2.1,4.288L52.361,67.9l3.49,4.625,4.4-5.155,1.817,2.746,1.96-3.324L66.9,69.875l2.868-5.926,2.82,3.132,3.872-4.673,2.008,3.324,3.012-4.866,1.482,3.806,3.012-5.444,2.1,4.432,5.88-1.927.956,2.939,4.78-2.313,2.342,2.313,1.53-1.445,2.056,2.5,1.482-2.939.956,2.939,2.964-1.493,2.056,3.18,3.2-4.432.717,4.191,5.593-3.276,2.773-4.673,1.578,5.251,2.438-1.494L132,65.733l1.864-4.432,2.438,4.432,2.295-1.879,2.2,2.939,3.155-1.06,2.82,4,1.673-5.348L151.7,69.54l3.3-.53,2.534.915,2.725-1.879,2.056,4.481,2.916-2.6,2.1,3.806L170,70.7l1.386,3.9,1.482-2.264,1.912,3.806.143,60.03h-160Z" transform="translate(-14.93 183.135)" fill="#82a344"/><path d="M176.718,74.989l-2.056,4.047v1.927l-.574,1.831-.239-3.132L172.51,76.53V75.085l-2.438-5.348-2.677,5.3v1.831l-1.434,2.891-1.625,4.481-.526-1.734-1.91-3.422V77.253l-2.39-4.24h0l-2.39,4.432V79.42L155.16,82.7l-1.339,4.529v5.926L152.386,97.1l6.6-2.842h0l-7.457,6.841,6.167-2.313-4.78,6.552,5.689-3.565v.626l-6.836,7.516-1.673-2.409v.578l-3.012-3.421,7.075,1.927-9.566-6.89V98.162l8.461,4.818-7.888-10.117,5.354,2.457-1.578-5.589-1.769-4.818-1.339-3.132V80.337L143.4,74.989l-3.012,5.444,2.629-1.3-2.629,3.132L139,85.2l-.478,1.734-3.107-3.662,1.673.819V82.264l-1.96-4.288h0l-2.1,4.143v1.927l-2.2,3.035-5.976-6.263,5.115,1.831-5.306-6.022,3.537,1.3-3.585-4.1,2.247.964-2.438-2.553V71.231l2.295,2.12-2.486-5.54-2.677,5.3v1.831l-1.386,2.891v2.842l-2.247-2.553,1.673.771-2.008-2.264,1.864.434-1.96-4.24h0l-2.1,4.047,2.008-1.686-2.1,3.662,1.96-.964-3.92,4.24L112,84.722,110.66,81.59V80.144L108.215,74.8l-2.725,5.3v2.168L104.1,85.2l.717,2.072-1.769-3.18V82.264l-1.912-4.288h0l-2.151,4.143v3.324l-1.912-2.216L98.749,84V82.167l-1.912-4.24h0l-2.008,3.854-2.247-3.854L91.244,74.8V73.351l-2.534-5.54-2.725,5.3,2.581-1.253-2.629,3.083-1.386,2.891.239,2.553-1.2-2.6h0L81.54,81.83v3.083L77.19,77.59,81.97,80l-1.339-4.481-1.96-2.891-1.96-2.216,1.817.385-1.96-4.24h0l-2.1,4.143v1.975l-1.96,3.276L76.473,74.7l-5.354,5.781V82.36l-3.394-3.9,1.673.771L67.39,76.964V75.615L69.3,77.4l-1.96-4.24h0l-2.1,4.047v2.939l-1-3.854L62.9,73.158V71.713l-2.438-5.348-2.677,5.3V73.5l-1.434,2.891v2.746L54.34,75.808V73.977l-1.96-4.24h0l-2.1,4.1v1.975l-1.96,3.276-1,4.143V75.663l-1.339-4.481-2.3-3.372V65.98l-1.912-4.24h0l-2.1,4.047v1.975L37.7,71.038l-1.339,4.529v.289l-1.147-3.228L33.3,69.207v-1.83l-1.912-4.24h0L29.242,67.28v1.927l-1.96,3.324L25.943,77.06v8.431L20.112,78.41l5.163,2.457-1.769-4.818-1.339-3.132-2.39-2.6,2.247,1.156-3.059-5.107-2.868,5.3V73.5L14.71,76.386V103.51l1.339-.578-1.339,1.493v32.809H176.622v-4.143h0ZM163.38,86.5l-.574,3.324-3.059-4.818Zm-5.928,21.006-3.442,4.529h-.81l-1.386-1.927Zm-7.983,1.4-.287.723-1.291-1.445Zm-78.3-26.642V85.3L67.39,80.915v-.434Zm-30.834,25.1H37.991l-.382-.964h.526Zm-4.35-30.5v5.4l-4.4-7.371Z" transform="translate(-15.762 193.825)" fill="#606b3e"/><path d="M63.031,135.564,47.782,120.773,67.86,130.794,54.522,117.063l6.358,2.794L48.212,109.21,65.8,114.269,47.256,102.128l-.143-2.7,16.158,8.238L46.491,91.818l12.572,2.5L46.252,84.832,46.2,80.159,56,84.543,45.918,73.9l-.048-.723,6.836,3.035-6.884-7.227,4.3,1.686-4.589-4.529-.1-1.783,4.4,3.806-4.68-9.445L39.99,68.066l5.019-3.9L44.962,65.8,39.9,71.292l4.589-2.264L37.265,76.4l7.505-3.324-.048.674-10.8,11.081,10.66-4.721-.048,1.012L31.051,95.287l13.1-6.552L26.8,108.44l17.209-9.106-.048,2.65-19.5,14.6L43,109.355,29.091,120.339,43,115.329,21.92,130.36l17.926-7.13L27.035,136.575l9.991-4.625L23.5,146.693l19.456-9.636L42.667,147.7h6.788l-.526-10.647L66.9,144.139,54.57,131.95Z" transform="translate(11.495 182.295)" fill="#3c4028"/><path d="M78.34,127.561,60.844,110.7l16.11,9.491-15.823-15.9V104.1l9.561,4.481-8.174-9.347,14.867,5.2L60.557,94.27l-.1-1.831,11.282,2.794L60.175,87.622l-.048-1.2L69.019,91.1,59.745,79.672l-.048-.964,9.083,3.565L59.41,73.65l-.048-.723,6.932,2.7L59.6,69.507l3.107,1.156-3.681-3.276-.1-1.975,3.49,2.6L58.789,61.75l-.048.1h0l-3.92,6.07L58.6,65.412l-.048,1.927-3.92,3.421,3.633-1.4L51,75.625l7.362-2.7-.048.867-9.848,8.431,9.7-3.565-.048,1.108-9.99,11.18,9.8-4.673-.048,1.542L45.451,96.727l12.286-4.191-.1,1.783-17.683,10.55,16.779-5.926-9.991,10.214,10.612-5.251v.289L40.193,119.949l16.684-7.13L38.95,127.705l17.783-6.841-15.249,11.8,15.106-5.54-.287,9.009h6.645l-.526-8.672,13.337,5.2L60.844,119.033Z" transform="translate(75.875 193.863)" fill="#3c4028"/><path d="M32.992,145.243l-.335,12.96H40.45l-.574-12.526L55.986,153,39.254,136.379,55.03,146.4l-15.3-19.753,13.481,6.359L38.44,116.626l-.1-1.542L49.867,121.4l-12-14.309,15.3,7.13L37.629,99.908l-.048-1.06L51.158,102.8,37.247,92.055,36.625,86.8,47.907,96.969,36.721,80.878l-.048-1.253,10.947,5.01L36.338,72.5l-.048-.964,8.318,3.854L36.673,66.81l3.681,1.638-4.446-4.673-.143-2.746,4.255,3.662-4.3-8.72-.191.289v.048L30.94,64.6l4.446-3.469-.1,2.746L30.7,68.593l4.35-1.975-8.7,8.72,8.748-3.71-.048,1.253L23.336,84.588l11.521-4.914-.048,4.24L22.953,96.728,34.57,90.273l-.1,2.216L19.7,104.87l14.628-5.83-.048.482-16.4,14.02,13.576-4.818L21.28,122.215l12.572-7.275-.048,1.253L17.312,132.958,34,126.213l-18.026,19.32,15.68-8.046L14.97,153.048Z" transform="translate(-14.779 171.797)" fill="#3c4028"/></g><g transform="translate(44.209 15.943)"><g transform="translate(2.982 67.738)"><path d="M10.891-.007,59.374,7.3,57.011,21.03,9.749,6.8C8.2,6.523,7.26,4.806,7.583,2.947S9.387-.235,10.891-.007Z" transform="translate(-1.593 0.033)" fill="#58351f"/><path d="M64.805,15.16c-.662,3.8,1.276,7.27,4.317,7.822s6.049-2.127,6.7-5.908S74.549,9.78,71.508,9.252,65.467,11.4,64.805,15.16Z" transform="translate(-13.727 -1.925)" fill="#8b5e3c"/><path d="M54.123-.007,5.64,7.3,8,21.025,55.328,6.8c1.489-.276,2.426-1.993,2.1-3.852S55.627-.235,54.123-.007Z" transform="translate(-1.194 0.033)" fill="#7c4a19"/><path d="M11.145,15.16c.67,3.8-1.276,7.27-4.317,7.822S.787,20.855.125,17.074,1.4,9.78,4.442,9.252,10.483,11.4,11.145,15.16Z" transform="translate(0.005 -1.925)" fill="#8b5e3c"/></g><path d="M124.521,62.2c-1.764-1.927-4.5-4.528-5.671,1.345a13.618,13.618,0,0,1-2.118,4.776,29.648,29.648,0,0,0-5.858-11.851,24.587,24.587,0,0,1-4.749-13.17,1.353,1.353,0,0,0-2.26-.894,38.379,38.379,0,0,0-12.51,28.421,19.566,19.566,0,0,1-5.123-8.011,1.788,1.788,0,0,0-3.18-.43c-.157.238-.3.477-.433.708-6.15,10.886-9.109,24.1-6.374,36.4,4.573,20.6,34.824,26.354,50.84,13.409C142.755,100.247,137.774,76.674,124.521,62.2Z" transform="translate(-71.906 -42.016)" fill="#ed694a"/><g transform="translate(3.318)"><path d="M81.626,207.652c-3.277-15.054.192-31.219,7.473-44.609-.184-.444-.361-.9-.527-1.381a2.168,2.168,0,0,0-3.855-.521c-.19.289-.365.577-.524.858-7.456,13.183-11.043,29.193-7.727,44.087C78.994,217.464,88,225.1,98.89,228.556,90.395,224.441,83.742,217.386,81.626,207.652Z" transform="translate(-75.225 -152.884)" fill="#d8553a"/><path d="M178.019,76.5A48.087,48.087,0,0,1,190.86,44.628c-.055-.468-.1-.886-.122-1.2a1.616,1.616,0,0,0-2.679-1.151c-9.334,8.439-15.023,20.382-15.227,34.476l1.747,1.357a2.352,2.352,0,0,0,2.848.027,2.137,2.137,0,0,0,.592-1.637Z" transform="translate(-153.277 -41.861)" fill="#d8553a"/></g><path d="M168.073,182.906c-1.579-1.724-4.034-4.051-5.078,1.2a12.183,12.183,0,0,1-1.9,4.272,26.51,26.51,0,0,0-5.245-10.6A21.983,21.983,0,0,1,151.6,166a1.211,1.211,0,0,0-2.024-.8,34.315,34.315,0,0,0-11.2,25.423,17.5,17.5,0,0,1-4.587-7.166,1.6,1.6,0,0,0-2.847-.385c-.14.213-.27.427-.387.634-5.507,9.738-8.156,21.562-5.707,32.564,4.1,18.424,31.182,23.575,45.522,11.995C184.4,216.942,179.94,195.855,168.073,182.906Z" transform="translate(-123.932 -156.649)" fill="#f4a32c"/><path d="M129.954,287.489c-2.168-10.754.078-22.294,4.839-31.9a18.483,18.483,0,0,1-1-2.355,1.6,1.6,0,0,0-2.848-.385c-.14.213-.27.427-.387.634-5.507,9.738-8.156,21.562-5.707,32.564,1.9,8.569,8.783,14.265,17.039,16.743a21.714,21.714,0,0,1-11.936-15.3Z" transform="translate(-113.808 -226.417)" fill="#e89528"/><path d="M198.277,289.224c-1.069-1.167-2.731-2.742-3.438.814a8.24,8.24,0,0,1-1.284,2.892A17.943,17.943,0,0,0,190,285.754a14.884,14.884,0,0,1-2.879-7.971.82.82,0,0,0-1.37-.541,23.23,23.23,0,0,0-7.582,17.21,11.845,11.845,0,0,1-3.1-4.851,1.084,1.084,0,0,0-1.927-.26c-.1.144-.183.289-.262.429-3.728,6.592-5.521,14.6-3.864,22.044,2.772,12.472,21.108,15.959,30.815,8.12a15.612,15.612,0,0,0,5.8-10.651C206.266,302.945,203.827,295.279,198.277,289.224Z" transform="translate(-153.277 -246.32)" fill="#f4d44e"/><path d="M226.309,387.885c-.6-.65-1.521-1.528-1.915.454a4.588,4.588,0,0,1-.715,1.611,10,10,0,0,0-1.978-4,8.293,8.293,0,0,1-1.6-4.441.457.457,0,0,0-.763-.3,12.942,12.942,0,0,0-4.224,9.588,6.6,6.6,0,0,1-1.73-2.7.6.6,0,0,0-1.074-.145c-.053.08-.1.161-.146.239a17.628,17.628,0,0,0-2.152,12.281c2.1,9.463,19.344,9.176,20.4-1.41a14.932,14.932,0,0,0-4.1-11.177Z" transform="translate(-186.186 -329.533)" fill="#eae9e8"/><path d="M214.009,402.35a14.369,14.369,0,0,1,2.152-10.986c.044-.07.093-.142.146-.214a.635.635,0,0,1,1.074.13,5.937,5.937,0,0,0,1.73,2.418,10.955,10.955,0,0,1,2.9-7.33,8.337,8.337,0,0,1-1.918-4.854.457.457,0,0,0-.763-.3,12.942,12.942,0,0,0-4.224,9.588,6.6,6.6,0,0,1-1.73-2.7.6.6,0,0,0-1.074-.145c-.053.08-.1.161-.146.239A17.628,17.628,0,0,0,210,400.477c.855,3.846,4.366,6.157,8.248,6.715a7.526,7.526,0,0,1-4.243-4.842Z" transform="translate(-185.36 -329.535)" fill="#f7e7a1"/><path d="M200.01,189.019a35.542,35.542,0,0,1,9.378-21.731q-.082-.624-.137-1.282a1.211,1.211,0,0,0-2.024-.8A33.751,33.751,0,0,0,196.6,184.54h0c-.1.559-.222,1.373-.3,2.013h0a38.319,38.319,0,0,0-.277,4.076C196.177,190.659,199.6,192.417,200.01,189.019Z" transform="translate(-174.023 -147.339)" fill="#e89528"/><g transform="translate(17.105 30.706)"><path d="M174.013,360.811a34.015,34.015,0,0,1,2.7-20.8,12.571,12.571,0,0,1-1.64-3.177,1.084,1.084,0,0,0-1.928-.26c-.1.144-.183.289-.262.429-3.728,6.592-5.521,14.6-3.864,22.044,1.3,5.841,6.01,9.711,11.65,11.37a15.169,15.169,0,0,1-6.656-9.6Z" transform="translate(-168.396 -324.255)" fill="#e8c842"/><path d="M222.523,291.412a25,25,0,0,1,4.164-10.554,17.226,17.226,0,0,1-.531-3.075.82.82,0,0,0-1.37-.541,22.724,22.724,0,0,0-6.4,9.9h0c-.193.6-.466,1.585-.632,2.365h0a25.477,25.477,0,0,0-.552,4.944C219.907,294.789,222.143,294.12,222.523,291.412Z" transform="translate(-207.425 -277.026)" fill="#e8c842"/></g></g></g><g transform="translate(310.197 2873.759)"><path d="M10.761,34.62H12.6l2.259,19.291H13.347l-.386-3.686H10.582l-.357,3.686H8.68Zm0,13.763h2.11l-1.1-10.2h0Z" transform="translate(-8.68 -34.607)" fill="#b8b8b8"/><path d="M11.37,34.625h2.556a2.14,2.14,0,0,1,2.17,1.338,9.809,9.809,0,0,1,.594,3.894v8.472a10.76,10.76,0,0,1-.654,4.31,2.259,2.259,0,0,1-2.17,1.278H11.34ZM15.085,39.8a7.7,7.7,0,0,0-.3-2.586,1.04,1.04,0,0,0-.981-.8h-.832V52.1H13.8a.951.951,0,0,0,.713-.268c.386-.386.565-1.427.565-3.151Z" transform="translate(-3.433 -34.612)" fill="#b8b8b8"/><path d="M18.3,34.62h1.516L17.761,53.911H15.889L13.6,34.62h1.546l.921,8.174.773,7.193h0l.684-7.193Z" transform="translate(1.025 -34.607)" fill="#b8b8b8"/><path d="M16.23,34.62h4.1v1.873h-2.5v6.6h2.348v1.9H17.835v7.045h2.527v1.873H16.23Z" transform="translate(6.212 -34.607)" fill="#b8b8b8"/><path d="M22.451,34.62h1.427V53.911H22.719L19.746,40.654V53.911H18.26V34.62h1.219L22.63,47.64l-.178-5.588Z" transform="translate(10.216 -34.607)" fill="#b8b8b8"/><path d="M20.61,34.62h4.518v1.873H23.7V53.911H22.1V36.493H20.61Z" transform="translate(14.852 -34.607)" fill="#b8b8b8"/><path d="M26.4,34.62H28V48.977a9.393,9.393,0,0,1-.624,3.953A2.14,2.14,0,0,1,25.3,54.149a2.2,2.2,0,0,1-2.11-1.219,9.393,9.393,0,0,1-.624-3.953V34.62H24.2v14.3a10.879,10.879,0,0,0,0,2.289,3.775,3.775,0,0,0,.208.624.832.832,0,0,0,.773.416.862.862,0,0,0,.8-.476,3.151,3.151,0,0,0,.268-1.367V48.918Z" transform="translate(18.668 -34.607)" fill="#b8b8b8"/><path d="M25.11,34.629h2.972a2.021,2.021,0,0,1,1.783.713,4.518,4.518,0,0,1,.624,2.408v2.2a10.017,10.017,0,0,1-.268,2.5,1.873,1.873,0,0,1-.981,1.308,1.189,1.189,0,0,1,.773.743,8.085,8.085,0,0,1,.386,2.051v4.161a25.71,25.71,0,0,0,0,3.21H28.945V47.44A5.945,5.945,0,0,0,28.677,45a1.219,1.219,0,0,0-.921-.327H26.8v9.3H25.2Zm3.716,4.726a6.51,6.51,0,0,0-.268-2.586,1.04,1.04,0,0,0-.832-.357H26.715v6.51h1.04a.832.832,0,0,0,.684-.238,2.378,2.378,0,0,0,.3-.981,19.884,19.884,0,0,0,0-2.229Z" transform="translate(23.728 -34.616)" fill="#b8b8b8"/><path d="M27.61,34.62h4.132v1.873H29.275v6.6h2.348v1.9H29.275v7.045h2.467v1.873H27.61Z" transform="translate(28.659 -34.607)" fill="#b8b8b8"/></g></g></svg>