<svg xmlns="http://www.w3.org/2000/svg" width="55.684" height="75.891" viewBox="0 0 55.684 75.891">
  <g id="Group_394" data-name="Group 394" transform="translate(0 0)">
    <g id="資產_2" data-name="資產 2" transform="translate(2.546 57.847)">
      <g id="OBJECTS" transform="translate(0 0)">
        <path id="Path_288" data-name="Path 288" d="M10.4-.011,51.8,6.225,49.784,17.95,9.423,5.8a2.682,2.682,0,0,1-1.85-3.289A2.751,2.751,0,0,1,10.4-.011Z" transform="translate(-2.458 0.033)" fill="#58351f"/>
        <path id="Path_289" data-name="Path 289" d="M64.786,14.287c-.565,3.242,1.09,6.209,3.686,6.68s5.166-1.816,5.724-5.045-1.09-6.229-3.686-6.68S65.351,11.079,64.786,14.287Z" transform="translate(-21.167 -2.985)" fill="#8b5e3c"/>
        <path id="Path_290" data-name="Path 290" d="M47.043-.011,5.64,6.225,7.658,17.95,48.072,5.8a2.7,2.7,0,0,0,1.8-3.289A2.751,2.751,0,0,0,47.043-.011Z" transform="translate(-1.843 0.033)" fill="#7c4a19"/>
        <path id="Path_291" data-name="Path 291" d="M9.517,14.287c.572,3.242-1.09,6.209-3.686,6.68S.671,19.151.106,15.922,1.2,9.693,3.792,9.242,8.952,11.079,9.517,14.287Z" transform="translate(0.005 -2.985)" fill="#8b5e3c"/>
      </g>
    </g>
    <g id="fire" transform="translate(0 0)">
      <path id="Path_273" data-name="Path 273" d="M117.322,59.256c-1.506-1.646-3.847-3.867-4.843,1.149a11.629,11.629,0,0,1-1.808,4.078,25.318,25.318,0,0,0-5-10.121,21,21,0,0,1-4.055-11.241,1.155,1.155,0,0,0-1.93-.763A32.775,32.775,0,0,0,89,66.629a16.708,16.708,0,0,1-4.375-6.841,1.527,1.527,0,0,0-2.716-.367c-.134.2-.258.407-.369.6-5.252,9.3-7.779,20.585-5.443,31.087C80,108.7,105.836,113.619,119.513,102.564,132.894,91.749,128.64,71.618,117.322,59.256Z" transform="translate(-72.39 -42.022)" fill="#ed694a"/>
      <g id="Group_266" data-name="Group 266" transform="translate(2.834)">
        <path id="Path_274" data-name="Path 274" d="M80.691,200.72c-2.8-12.855.164-26.66,6.381-38.095-.157-.379-.309-.772-.45-1.18A1.852,1.852,0,0,0,83.331,161c-.162.246-.312.493-.448.733-6.367,11.258-9.43,24.93-6.6,37.649,2.159,9.716,9.85,16.237,19.15,19.189C88.179,215.057,82.5,209.033,80.691,200.72Z" transform="translate(-75.225 -153.95)" fill="#d8553a"/>
        <path id="Path_275" data-name="Path 275" d="M177.262,71.442a41.065,41.065,0,0,1,10.966-27.218c-.047-.4-.082-.756-.1-1.027a1.38,1.38,0,0,0-2.288-.983,39.688,39.688,0,0,0-13,29.442l1.492,1.159a2.008,2.008,0,0,0,2.432.023A1.825,1.825,0,0,0,177.262,71.442Z" transform="translate(-156.132 -41.861)" fill="#d8553a"/>
      </g>
      <path id="Path_276" data-name="Path 276" d="M161.627,180.274c-1.348-1.472-3.445-3.459-4.337,1.027a10.4,10.4,0,0,1-1.619,3.648,22.639,22.639,0,0,0-4.479-9.053,18.773,18.773,0,0,1-3.631-10.056,1.034,1.034,0,0,0-1.728-.683,29.3,29.3,0,0,0-9.565,21.711,14.944,14.944,0,0,1-3.917-6.12,1.368,1.368,0,0,0-2.432-.329c-.12.182-.231.364-.331.541-4.7,8.316-6.965,18.414-4.874,27.809,3.5,15.734,26.628,20.132,38.874,10.243C175.57,209.34,171.761,191.333,161.627,180.274Z" transform="translate(-123.932 -157.852)" fill="#f4a32c"/>
      <path id="Path_277" data-name="Path 277" d="M129.075,282.327c-1.852-9.184.066-19.038,4.132-27.244a15.783,15.783,0,0,1-.858-2.011,1.368,1.368,0,0,0-2.432-.329c-.12.182-.231.364-.331.541-4.7,8.316-6.965,18.414-4.874,27.808,1.626,7.318,7.5,12.181,14.551,14.3A18.543,18.543,0,0,1,129.075,282.327Z" transform="translate(-115.286 -230.173)" fill="#e89528"/>
      <path id="Path_278" data-name="Path 278" d="M193.914,287.442c-.913-1-2.332-2.342-2.936.7a7.037,7.037,0,0,1-1.1,2.47,15.322,15.322,0,0,0-3.032-6.128,12.711,12.711,0,0,1-2.458-6.807.7.7,0,0,0-1.17-.462,19.837,19.837,0,0,0-6.475,14.7,10.115,10.115,0,0,1-2.652-4.142.926.926,0,0,0-1.646-.222c-.081.123-.156.247-.224.366-3.184,5.629-4.715,12.465-3.3,18.825,2.367,10.651,18.026,13.628,26.315,6.934a13.332,13.332,0,0,0,4.956-9.1C200.736,299.16,198.653,292.614,193.914,287.442Z" transform="translate(-155.485 -250.804)" fill="#f4d44e"/>
      <path id="Path_279" data-name="Path 279" d="M223.878,386.892c-.509-.555-1.3-1.3-1.636.387a3.919,3.919,0,0,1-.611,1.376,8.537,8.537,0,0,0-1.689-3.414,7.082,7.082,0,0,1-1.37-3.792.39.39,0,0,0-.652-.258,11.052,11.052,0,0,0-3.607,8.188,5.635,5.635,0,0,1-1.477-2.308.516.516,0,0,0-.917-.124c-.045.069-.087.137-.125.2a15.054,15.054,0,0,0-1.838,10.488c1.8,8.081,16.519,7.836,17.422-1.2A12.751,12.751,0,0,0,223.878,386.892Z" transform="translate(-189.614 -337.062)" fill="#eae9e8"/>
      <path id="Path_280" data-name="Path 280" d="M213.374,399.245a12.27,12.27,0,0,1,1.838-9.382c.038-.06.08-.121.125-.183a.542.542,0,0,1,.917.111,5.07,5.07,0,0,0,1.477,2.065,9.355,9.355,0,0,1,2.479-6.26,7.12,7.12,0,0,1-1.638-4.146.39.39,0,0,0-.652-.258,11.052,11.052,0,0,0-3.607,8.188,5.637,5.637,0,0,1-1.477-2.308.516.516,0,0,0-.917-.124c-.045.069-.087.137-.125.2a15.054,15.054,0,0,0-1.838,10.488c.73,3.284,3.729,5.258,7.044,5.734A6.427,6.427,0,0,1,213.374,399.245Z" transform="translate(-188.908 -337.064)" fill="#f7e7a1"/>
      <path id="Path_285" data-name="Path 285" d="M199.428,185.495a30.351,30.351,0,0,1,8.009-18.558q-.07-.533-.117-1.095a1.034,1.034,0,0,0-1.728-.683,28.823,28.823,0,0,0-9.072,16.51h0c-.085.477-.19,1.173-.256,1.719h0a32.724,32.724,0,0,0-.236,3.481C196.155,186.9,199.075,188.4,199.428,185.495Z" transform="translate(-177.236 -149.902)" fill="#e89528"/>
      <g id="Group_268" data-name="Group 268" transform="translate(14.607 26.222)">
        <path id="Path_286" data-name="Path 286" d="M173.193,357.2a29.047,29.047,0,0,1,2.3-17.767,10.735,10.735,0,0,1-1.4-2.713.926.926,0,0,0-1.646-.222c-.081.123-.156.247-.224.366-3.184,5.629-4.715,12.465-3.3,18.825,1.109,4.988,5.132,8.293,9.949,9.71A12.954,12.954,0,0,1,173.193,357.2Z" transform="translate(-168.396 -325.983)" fill="#e8c842"/>
        <path id="Path_287" data-name="Path 287" d="M221.746,289.311A21.353,21.353,0,0,1,225.3,280.3a14.711,14.711,0,0,1-.454-2.626.7.7,0,0,0-1.17-.462,19.406,19.406,0,0,0-5.465,8.457h0c-.165.509-.4,1.353-.539,2.019h0a21.757,21.757,0,0,0-.472,4.222C219.512,292.2,221.422,291.623,221.746,289.311Z" transform="translate(-208.853 -277.026)" fill="#e8c842"/>
      </g>
    </g>
  </g>
</svg>
