<svg xmlns="http://www.w3.org/2000/svg" width="1920.002" height="310.598" viewBox="0 0 1920.002 310.598">
  <g id="Group_1026" data-name="Group 1026" transform="translate(-14397 -3377)">
    <rect id="Rectangle_1" data-name="Rectangle 1" width="1920" height="106" transform="translate(14397 3377)" fill="#5db7c5"/>
    <g id="圖層_1" data-name="圖層 1" transform="translate(16395.402 3687.598) rotate(180)">
      <path id="Path_2320" data-name="Path 2320" d="M1920,31.449V205.593H0V96.735c14.034,1.3,20.251,7.04,31.893,9.631a15.045,15.045,0,0,1,4.278-3.2c3.694,2.369,3.694,3.2,8.64,2.13,20.438-3.767,9.01-17.864,38.4-18.188,5.575,4.161,12.994,7.134,21.269,8.524,2.95-5.489,9.17-5.966,14.936-9.631,7.973.954,24.877-1.129,36.278,1.073,16.85,3.341,22.378,12.6,44.835,13.944,6.59-8.779,31.174-4.193,46.936-3.2,2.658-3.682,23.069-21.188,27.747-22.484s8.96,1.437,14.936-1.073c9.861-4.142,5.077-10.057,23.442-10.705,1.541.616,0,1.552,4.278,1.073V63.547c6.645-3.306,10.08-9.87,19.189-11.761,20.173-7.909,46.909,9.749,64,11.761,1.3-5.523,13.077-17.046,21.262-19.262,5.1-2.352,13.077-2.284,23.467-2.13,5.022,3.086,12.438,4.074,17.062,7.483,8.584-3.409,20.73-3.631,34.152-2.13,4.544,6.818,18.2,8.659,25.6,13.909A112.617,112.617,0,0,1,539.664,76.4q3.344-1.489,6.4-3.221c2.179.869.584.392,4.253,1.073,5.846,8.114,14.192,11.711,21.262,18.2,7.442-.324,5.315,2.522,12.81,2.13,1.966-.1,6.778-2.744,10.63-2.13s-.771,2.318,10.63,3.2c7.84-6.018,31.893-7.6,49.088-5.353l8.531-1.073c5.954,1.7,1.222,4.159,14.936,5.353,2.445-3.92,6.963-5.284,10.63-8.522,1.621,0,32.5-.767,34.125-2.148,11.534-6.465,13.288-15.342,27.747-20.336,5.76-1.977,30.458-8.1,34.125-6.41,26.71-13.364,54.458-26.2,81.061-39.6,7.07,1.364,5.76,2.864,12.81,4.278,4.97-3.8,11.029-6.188,23.467-6.426,3.482,1.6,5.979.733,10.63,2.148l8.531,7.483c3.774,2.1,9.222,5.114,14.936,3.2,2.658,1.21,0,2.625,2.126,4.3l13.075,5.319h4.253c4.04-6.17,17.621-10.824,31.893-11.779,4.7,4.381,9.461,4.636,17.062,7.5,10.5,3.937,18.6,11.493,25.6,17.046,3.747-.681,2.08-.205,4.253-1.073,10.046-2.421,8.824-9.6,14.936-13.909,15.68-11.012,50.5-35.268,83.214-33.172,5.846.375,8.266-3.665,12.784-2.148,8.285,1.362,13.84,4.787,21.256,6.429l27.747,3.2,6.59,5.439c6.059,1.585,8.85-1.04,12.81,0,8.64,4.177,2.445,9.528,10.63,12.836A219.352,219.352,0,0,0,1256.39,37.9c12.491,2.267,24.238.41,34.152,3.2,6.67,1.875,13,8.659,21.262,6.426,8.32.443,16.558,4.977,23.467,3.2a38.764,38.764,0,0,1,12.811-2.148c7.84,2.8,19.454,4.177,27.747,6.426,2.658-3.409,1.861-2.813,10.63-3.2l38.4,12.836c16.531-1.245,19.8-.972,38.378,1.073,9.062,7.978,23.92,13.109,31.893,21.409,31.893-4.551,38.776-18.256,68.277-20.336,2.658,3.256,6.219,7.176,8.531,7.483l4.278,1.073V74.269c13.288-7.6,39.653-23.591,66.125-23.541,7.016,2.182,67.745,5.591,77.206,2.182,20.544-3.87,18.339-16.33,44.782-18.2,6.272,2.813,13.528,6.818,21.262,8.523,3.641-1.245,10.79-.938,14.936-2.148,9.834-2.864,23.92-12.085,40.531-5.353,21.262-8.37,41.486-3.92,64-2.13C1910.219,33.989,1912.506,31.722,1920,31.449Z" transform="translate(78.4 0)" fill="#5db7c5" fill-rule="evenodd"/>
    </g>
  </g>
</svg>
