<svg xmlns="http://www.w3.org/2000/svg" width="1920" height="1104.305" viewBox="0 0 1920 1104.305">
  <g id="Group_1027" data-name="Group 1027" transform="translate(-19110 -4321.695)">
    <path id="Subtraction_1" data-name="Subtraction 1" d="M1920,263.582H0V213.5a24.063,24.063,0,0,0,8.283-2.038,14.153,14.153,0,0,1,5.484-1.382,10.115,10.115,0,0,1,1.175.071c4.13.512,8.208,1.168,12.151,1.8l.018,0c8.163,1.311,15.873,2.549,23.633,2.549,10.707,0,19.667-2.438,28.2-7.674a22.505,22.505,0,0,0,12.291,3.755c8,0,15.053-4.336,21.276-8.162a68.145,68.145,0,0,1,6.964-3.939,27.93,27.93,0,0,1,7.48-1.631c2.88-.375,5.6-.728,7.455-1.718,6.008,2.065,11.806,6.352,16.921,10.135l.029.021c1.5,1.111,2.92,2.16,4.311,3.132a35.814,35.814,0,0,0,16.508-5.616c4.026-2.718,6.988-6.12,9.853-9.411a61.35,61.35,0,0,1,7.534-7.679,30.692,30.692,0,0,1,10.889-5.678c2.623-1.473,9.528-2.253,19.969-2.253,9.866,0,22.9.725,34.862,1.94,11.481,1.166,20.055,2.589,22.376,3.713h.126A53.052,53.052,0,0,0,296.4,179.75a94.331,94.331,0,0,0,17.539-9.055c11.1-7.148,20.7-15.759,27.709-22.046q1.118-1,2.133-1.91v-1.676l4.278,1.673c1.8.373,4.674,4.3,8.531,11.667,15.233-1.675,24.43-8.177,34.165-15.061,9.187-6.5,18.687-13.214,34.112-16.646,4.271,6.933,10.635,12.552,16.789,17.985,5.357,4.73,10.9,9.621,15.1,15.4,11.179,1.919,16.835,2.841,23.176,2.841a131.739,131.739,0,0,0,15.2-1.168l38.4,20.013c1.307-.091,2.4-.148,3.28-.194,5.093-.267,5.093-.267,7.063-4.225l.073-.145.216-.432a120.538,120.538,0,0,0,11.49,3.908l.01,0c5.728,1.747,11.651,3.553,16.247,6.107a26.652,26.652,0,0,0,12.81-3.348,9.161,9.161,0,0,1,3.462-.638c3.141,0,6.448,1.314,9.949,2.705,3.276,1.3,6.662,2.648,10.057,2.929a8.56,8.56,0,0,1,3.333-.7c4.082,0,7.716,3.048,11.232,6a30.314,30.314,0,0,0,6.7,4.719c5.3,2.326,11.12,2.585,17.287,2.859,5.431.241,11.046.491,16.865,2.138A167.367,167.367,0,0,1,695.5,218.49c4.059,2.558,4.58,5.887,5.131,9.412.563,3.6,1.145,7.319,5.5,10.6a5.154,5.154,0,0,0,1.989.391,11.584,11.584,0,0,0,3.021-.549l.2-.055a13.686,13.686,0,0,1,3.679-.6,10.237,10.237,0,0,1,3.917.816l6.59,8.48,27.747,5a52.926,52.926,0,0,1,9.215,4.55c3.664,2.113,7.45,4.3,12.041,5.474a4.292,4.292,0,0,0,2.02.533c1.457,0,2.767-.835,4.154-1.719l.381-.242a10.048,10.048,0,0,1,5.464-1.96c.251,0,.508.013.766.039,1.324.132,2.682.2,4.038.2,7.328,0,15.251-1.95,23.549-5.8a116.11,116.11,0,0,0,22.216-13.988c14.2-11.1,26.227-24.265,33.413-32.134,2.387-2.626,3.671-5.974,4.913-9.213a35.235,35.235,0,0,1,3.452-7.295,13.439,13.439,0,0,1,6.571-5.179c.435-.271.714-.456.917-.592l.015-.01a2.582,2.582,0,0,1,1.214-.512c.408-.1,1.024-.254,2.106-.561,1.147,1.42,2.3,2.9,3.53,4.465,6.23,7.959,13.291,16.979,22.07,22.113,2.235,1.312,4.254,2.289,6.037,3.15,4.308,2.082,7.706,3.724,11.026,8.544a52.17,52.17,0,0,0,19.783-6.132c5.975-3.367,10.163-7.6,12.11-12.232h4.252l13.075,8.293a4.352,4.352,0,0,1,.874,3.456c-.072,1.158-.14,2.253,1.253,3.241a8.108,8.108,0,0,1,3.773-.947c4.3,0,8.265,3.434,11.161,5.942l8.532,11.668a17.553,17.553,0,0,0,5.421,1.515,10.488,10.488,0,0,1,5.211,1.835c5.927-.177,10.681-1.135,14.533-2.929a25.541,25.541,0,0,0,8.933-7.09,17.131,17.131,0,0,1,6.367,3.341,16.759,16.759,0,0,0,6.443,3.329c13.833-10.863,28.214-21.667,42.122-32.116l.037-.028c12.828-9.637,26.092-19.6,38.9-29.595a3.794,3.794,0,0,0,2.132.453c4.172,0,12.3-2.634,16.77-4.2a135.214,135.214,0,0,0,15.223-6.242,34.32,34.32,0,0,0,9.872-8,80.3,80.3,0,0,0,6.77-9.61c3.057-4.83,6.218-9.822,11.105-14.093.467-.621,3.806-1.556,17.062-2.483,8.238-.576,16.275-.867,17.062-.867a38.646,38.646,0,0,1,4.439-4.919c2.41-2.368,4.686-4.606,6.192-8.369,8.678,1.178,9.989,3.172,11.256,5.1a7.564,7.564,0,0,0,3.679,3.246l8.531-1.673a81.236,81.236,0,0,0,15.949,1.52,74.738,74.738,0,0,0,19.616-2.424c6.222-1.728,10.9-4.3,13.523-7.443,7.305.886,8.037,2.3,8.625,3.445a2.516,2.516,0,0,0,2.007,1.551,5.1,5.1,0,0,0,1.228.144c2.187,0,4.549-1.234,6.448-2.226a10.15,10.15,0,0,1,2.955-1.24c.477-.039.928-.058,1.34-.058a7.428,7.428,0,0,1,5.107,1.7l.018.014a7.563,7.563,0,0,0,5.219,1.71c.357,0,.735-.013,1.124-.04a105.654,105.654,0,0,0,8.328,10.133c4.779,5.331,9.29,10.365,12.935,18.251,1.105.32,1.717.473,2.122.574a2.762,2.762,0,0,1,1.261.545c.231.151.5.323.869.555a69.825,69.825,0,0,1,6.4-5.021,149.587,149.587,0,0,0,17.063,23.36c3.009,3.331,7.123,5.822,11.1,8.231,5.8,3.516,11.8,7.151,14.5,13.455a85.2,85.2,0,0,0,14.462,1.378c8.029,0,14.654-1.581,19.69-4.7,2.48,2.851,5.82,4.646,9.05,6.382a35.647,35.647,0,0,1,8.012,5.286c2.28.052,4.5.1,6.569.1,7.285,0,12.947-.582,16.9-3.422,8.109-3.423,19.95-21.354,21.261-30.032,5.876,1.079,12.927,5.061,20.392,9.276l.007,0a167.679,167.679,0,0,0,16.005,8.3c6.149,2.635,11.411,3.916,16.087,3.916a21.441,21.441,0,0,0,11.509-3.159c5.586-1.809,9.053-6.377,12.406-10.794a39.32,39.32,0,0,1,6.782-7.544v-1.672a11.449,11.449,0,0,1,1.88-.2c1.147,0,1.331.386,1.565.875a2.088,2.088,0,0,0,.832,1c5.312-.292,9.022-1.27,11.675-3.076,2.372-1.615,3.626-3.706,4.953-5.92,1.569-2.618,3.191-5.322,6.813-7.695a9.907,9.907,0,0,1,5.653-1.726,21.75,21.75,0,0,1,3.238.314l.072.011a20.263,20.263,0,0,0,3.018.3,7.221,7.221,0,0,0,2.955-.575c2.04-.881,7.509-6.912,14.632-16.133,6.2-8.024,11.836-16.159,13.116-18.923,3.022.3,6.323.79,9.819,1.314,6.323.947,12.86,1.926,18.864,1.926a29.814,29.814,0,0,0,11.044-1.723,12.869,12.869,0,0,0,7.21-6.513c13.148,1.229,20.549,6.727,27.706,12.044,5.217,3.875,10.144,7.536,17.129,9.7,3.729,1.123,8.377,1.646,14.628,1.646,2.687,0,5.28-.088,8.149-.195l.381-.014c2.5-.093,4.87-.18,7.026-.18a34.043,34.043,0,0,1,6.1.417,38.879,38.879,0,0,1,5.975-4.663c3.614-2.441,7.028-4.747,8.961-10.353a42.1,42.1,0,0,1,21.269,13.29,37.62,37.62,0,0,0,10.2-1.388,19.278,19.278,0,0,0,6.553-3.315c3.426-2.712,5.273-6.36,7.059-9.889,2.789-5.508,5.672-11.2,14.591-13.768a10.735,10.735,0,0,1,3.262-.72c1.551,0,2.375.879,3.87,2.473.408.435.914.975,1.508,1.569a18,18,0,0,0,4.279-5,58.081,58.081,0,0,1,12.569,6.679c5.448,3.516,11.08,7.151,19.323,8.337V263.582Z" transform="translate(19110 4225)" fill="#eae5df"/>
    <rect id="Rectangle_1691" data-name="Rectangle 1691" width="1920" height="938" transform="translate(19110 4488)" fill="#eae5df"/>
  </g>
</svg>
