<svg xmlns="http://www.w3.org/2000/svg" width="802.011" height="389.015" viewBox="0 0 802.011 389.015">
  <g id="line-style-map_" data-name="line-style-map " transform="translate(265.594 -319.307)">
    <path id="path2830" d="M-63.772,706.754c-3.278-1.2-4.206-2.4-3.442-4.476.382-.928,1.038-1.747,1.53-1.747a19.082,19.082,0,0,1,4.753,2.456,41.961,41.961,0,0,0,5.736,3.166l1.912.71-2.349.055c-1.311.054-3.168.164-4.206.327a9.193,9.193,0,0,1-3.933-.491Zm-7.429-6.332a3.693,3.693,0,0,0-2.294-.273c-.819.273-1.42-.109-2.021-1.255a4.731,4.731,0,0,0-1.912-1.965c-1.311-.437-3.988-4.858-5.517-8.952a7.846,7.846,0,0,0-3-4.2c-2.185-1.2-2.294-1.8-.656-2.293,1.912-.6,2.294-3.985.656-6.223a4.048,4.048,0,0,1-.929-2.948c.273-.71-.492-1.965-2.294-3.821-2.294-2.347-2.731-3.221-2.841-5.677a8.143,8.143,0,0,0-.874-3.821c-.492-.6-.6-2.838-.328-7.26a39.678,39.678,0,0,0-.71-11.845c-1.256-6.113-1.857-17.521-1.53-27.892a27.6,27.6,0,0,0-.656-6.768c-1.038-3.657-5.736-8.3-11.526-11.353-4.152-2.183-4.753-2.729-6.391-6.113a42.62,42.62,0,0,0-4.206-6.768,23.449,23.449,0,0,1-3.168-5.458c-1.366-4.258-3.769-8.515-5.463-9.552a7.067,7.067,0,0,1-2.24-3.33c-.546-2.02-.437-2.565,1.366-5.131,1.912-2.784,1.912-2.893.656-3.22-3.168-.819-1.8-5.022,3.824-12.172,3.769-4.749,4.862-8.351,3.824-12.554a31.573,31.573,0,0,1-.765-3.712c-.055-.437-.328-.819-.656-.819s-.273-.6.109-1.31c.6-1.092.437-1.419-.983-2.074-2.076-.928-5.135,0-5.19,1.528,0,1.856-.819,2.02-3.551.6a12.905,12.905,0,0,0-3.332-1.365,12.01,12.01,0,0,1-3.387-2.292c-1.475-1.255-3-2.565-3.442-2.948a3.051,3.051,0,0,1-.819-2.129,3.965,3.965,0,0,0-1.256-2.62,9.6,9.6,0,0,1-2.021-3.384c-.546-1.637-.929-2.02-1.42-1.528-1.038,1.037-2.622.873-6.446-.819a13.3,13.3,0,0,1-4.917-3.548,11.684,11.684,0,0,0-3.387-3c-1.748-.928-2.185-.873-4.753.055l-2.786,1.092-8.631-4.148c-5.3-2.565-9.4-5.022-10.652-6.332-1.967-2.074-2.021-2.293-1.366-4.913.6-2.347.492-3.111-.819-5.786a28.793,28.793,0,0,0-3.988-5.786c-1.366-1.474-2.349-2.948-2.13-3.275.164-.327-.765-2.4-2.13-4.64a20.29,20.29,0,0,1-2.95-7.26c-.328-2.565-.765-3.33-2.076-3.93-1.366-.6-1.748-.546-2.568.546-1.093,1.528-.819,3.111,1.639,8.406a33.206,33.206,0,0,1,2.294,7.1,24.19,24.19,0,0,0,1.693,5.622c1.639,3.166.546,3.111-1.967-.109-1.53-1.91-1.912-2.948-1.639-4.148.328-1.255,0-1.91-1.584-3.057-2.349-1.747-2.9-2.893-2.021-4.53.492-.928.273-1.965-1.038-4.53s-1.584-3.821-1.256-5.731a6.208,6.208,0,0,0-3.5-7.041c-1.53-.6-2.021-1.31-2.349-3.166-.219-1.31-.656-3.275-.929-4.421-.328-1.2-.273-2.238.055-2.456s.109-1.092-.492-1.965a2.653,2.653,0,0,1-.328-3.22,3.392,3.392,0,0,0,.328-2.293c-.219-.382.328-1.419,1.2-2.347a16.145,16.145,0,0,0,2.622-4.2,25.641,25.641,0,0,1,3.824-5.622,32.116,32.116,0,0,0,4.37-6.714c1.2-2.729,1.857-3.548,2.95-3.6.765,0,1.366.328,1.311.819-.219,1.856,1.256,1.255,2.9-1.146.983-1.419,1.475-2.675,1.147-2.784a1.3,1.3,0,0,1-.6-1.2c0-.546-1.311-2.293-2.95-3.875-2.731-2.62-2.9-3-1.967-3.985a1.654,1.654,0,0,0,.328-2.238c-.874-1.528.492-4.967,1.967-4.967.6,0,.765-.218.382-.491-.819-.6-1.2-2.02-1.093-4.039.164-3.22-.546-4.585-2.9-5.568a24.571,24.571,0,0,1-4.37-2.511,7.75,7.75,0,0,0-3.168-1.528,51.245,51.245,0,0,1-6.228-1.31c-4.534-1.146-5.3-1.2-6.883-.382-3.223,1.692-6.665,2.347-8.085,1.583-1.038-.546-2.185-.218-6.173,1.856a39.614,39.614,0,0,1-7.156,3.057,26.339,26.339,0,0,0-5.3,2.02c-4.7,2.4-11.472,4.749-13.329,4.749-1.2,0-.382-.546,2.841-1.8,5.463-2.183,11.035-4.967,11.581-5.84.656-1.037-.765-1.419-2.4-.655a3.32,3.32,0,0,1-3.387-.218l-1.8-.928,1.967-1.037c2.24-1.146,2.95-2.456,2.4-4.53-.492-1.965,2.24-3.439,8.139-4.312a17.379,17.379,0,0,0,7.211-2.4c2.841-1.965,2.349-3.439-.71-2.129-1.475.6-2.513.6-4.7.055-2.622-.71-2.731-.819-1.53-1.692a13.918,13.918,0,0,1,8.74-1.856,6.811,6.811,0,0,0,4.534-.655l2.076-1.037-1.366-1.419a7.171,7.171,0,0,1-1.366-1.8c0-.6,3.879-1.8,5.845-1.8a23.962,23.962,0,0,0,5.9-1.583,70.4,70.4,0,0,1,11.69-2.62c6.719-.928,8.14-.928,13.22-.109,3.114.491,7.375,1.146,9.505,1.365a66.137,66.137,0,0,1,8.358,1.638c5.736,1.583,9.505,1.583,15.951-.055,2.841-.71,5.681-1.146,6.391-.928a3.744,3.744,0,0,0,2.513-.328c.983-.546,1.748-.491,3.168.273a8.357,8.357,0,0,0,5.026.6,15.093,15.093,0,0,1,7.156.983,24.791,24.791,0,0,0,5.463,1.365c1.42,0,1.42,0,.164.928-1.2.873-1.2.928-.055,1.365a15.619,15.619,0,0,0,4.971.055c3.769-.382,3.824-.382,4.862,1.638l1.038,2.074,1.366-1.747a9.946,9.946,0,0,1,4.425-2.62,7.927,7.927,0,0,1,6.118,0,14.32,14.32,0,0,0,5.791.546,5.245,5.245,0,0,1,4.534.873c1.748,1.255,1.8,1.255,3.387.055a15.034,15.034,0,0,1,3.988-1.91c3.168-.873,4.261-2.784,2.349-4.094-1.366-.928-1.311-1.037,2.24-2.729,2.622-1.31,3.824-1.583,4.37-1.092s.492,1.092,0,2.074c-.874,1.692.219,4.2,1.639,3.712a3.082,3.082,0,0,1,1.857,0c.819.328.819.6-.109,1.965-2.458,3.766,3.059,2.729,6.828-1.31a5.593,5.593,0,0,1,6.118-1.31c1.42.546,1.311.982-1.093,3.6-2.841,3.111-4.261,3.712-8.522,3.712a14.366,14.366,0,0,0-5.627,1.037c-1.584.819-2.349.873-3.551.328-2.294-1.037-3.114-.164-1.475,1.583l1.42,1.474-2.786.819a28.545,28.545,0,0,1-5.736.873c-2.294.055-2.9.328-2.9,1.255,0,.764-1.147,1.583-3.551,2.62-7.812,3.22-14.476,8.952-12.073,10.48a6.337,6.337,0,0,1,1.584,2.293,3.6,3.6,0,0,0,2.568,2.129,35.456,35.456,0,0,1,5.681,2.238A42.69,42.69,0,0,0-96,387.6c2.95.655,2.95.71,1.584,4.148-1.147,2.948-1.2,3.384-.273,5.131.546,1.037,1.366,1.91,1.8,1.856,2.13-.055,4.1-2.02,5.354-5.24,1.147-3.057,1.693-3.657,5.08-5.458,4.971-2.675,7.047-5.295,6.5-8.188-.382-1.91-.164-2.347,1.475-3.548a11.321,11.321,0,0,0,3.059-3.93c1.42-3.166,3.715-4.258,7.593-3.6,3.442.546,7.484,2.729,7.976,4.258a3.511,3.511,0,0,1-.382,2.511c-.6,1.146-.492,1.638.71,2.893l1.42,1.528,2.349-1.2a37.765,37.765,0,0,0,4.589-2.893l2.24-1.692.546,1.419a3.792,3.792,0,0,1,.164,2.293,3.079,3.079,0,0,0,.328,2.129,2.452,2.452,0,0,1,.109,2.293c-.382.71-.109,1.856.929,3.657,1.475,2.62,1.475,2.62.164,3.548-1.693,1.2-.6,2.456,1.256,1.474a4.737,4.737,0,0,1,5.354.328c1.967,1.747.328,3.875-4.862,6.332-5.627,2.675-8.14,3.166-15.514,3.22-5.463.055-6.173.218-11.472,2.729-3.114,1.474-5.627,2.948-5.627,3.275,0,1.31.983,1.2,4.753-.546a19.348,19.348,0,0,1,6.446-1.856c2.294,0,2.4.055,1.693,1.419a10.768,10.768,0,0,1-2.021,2.456c-1.093.873-1.147,1.255-.492,2.729,1.038,2.238,3.66,3.275,6.828,2.784l2.513-.437-1.912,1.31a12.9,12.9,0,0,1-3.879,1.747,25.428,25.428,0,0,0-4.916,1.91c-1.639.819-3.278,1.255-3.715.982-1.038-.655.055-1.583,3.387-2.948,2.95-1.255,2.458-2.565-.71-1.965a61.08,61.08,0,0,0-8.9,3.384c-5.736,2.511-6.719,3.166-7.047,4.694-.437,1.856-1.8,2.729-6.719,4.258a12.971,12.971,0,0,0-4.534,2.565,27.645,27.645,0,0,1-3.879,3.111,6.6,6.6,0,0,0-2.622,3c-.328,1.474-.437,1.474-.874.382-.819-2.074-2.021-.055-2.076,3.548-.055,3.657-1.912,6.168-6.009,8.078-4.206,1.965-10.161,6.6-11.363,8.843-1.038,1.965-1.093,2.729-.437,7.806.6,4.749.6,5.95-.219,7.478-.6,1.146-1.311,1.692-1.912,1.474-1.366-.546-3.059-6.223-2.622-8.733a3.209,3.209,0,0,0-1.2-3.657c-1.038-.983-2.021-1.365-2.841-1.092-.71.218-2.622-.218-4.37-.928-2.622-1.092-3.442-1.2-5.3-.6a5.269,5.269,0,0,0-2.9,2.293c-.6,1.365-1.038,1.528-2.677,1.146a16.638,16.638,0,0,1-3.715-1.31c-2.349-1.2-3.66-1.146-6.337.382-1.256.71-3.769,2.074-5.627,3-2.13,1.092-3.605,2.347-3.988,3.384-.328.928-1.53,4.476-2.622,7.86l-2.021,6.223,1.038,4.039c1.912,7.369,4.589,9.607,10.106,8.406,4.206-.873,6.665-2.729,7.593-5.513.6-1.8,1.2-2.347,3.114-2.893,2.841-.764,4.042-.819,5.135-.109.929.546.6,1.528-3.442,10.262-2.786,6-2.568,6.55,2.185,5.841,4.316-.6,8.3-.164,8.74,1.037a34.37,34.37,0,0,1-.656,7.041c-.983,6.059-.983,6.223.437,8.461a10.047,10.047,0,0,0,3.223,3.22c1.584.819,2.076.819,4.1,0,3.168-1.31,4.916-1.2,7.156.6,1.748,1.419,2.021,1.474,3.442.546a9.212,9.212,0,0,0,2.513-3c1.256-2.456,3.332-4.2,5.135-4.258a5.165,5.165,0,0,0,2.841-1.638c1.693-1.8,4.7-2.4,3.223-.655-1.2,1.474-1.912,6.223-1.147,7.7.656,1.2.71,1.2,1.912-.273.874-1.037,1.038-1.747.546-2.183-1.093-1.092-.765-2.02,1.311-3.548,2.13-1.583,3.824-1.419,5.627.546,1.366,1.419,8.577,3.384,10.652,2.893,3.168-.819,11.69,4.367,14.913,9.061,1.53,2.238,6.391,4.421,8.522,3.93,4.425-1.092,10.434,3.33,11.854,8.679a8.909,8.909,0,0,0,1.42,3.33c.929.6-.492,2.893-3.551,5.84-1.967,1.856-2.458,2.675-1.912,3.221s1.475.055,3.66-1.965c3.168-2.948,4.261-3.221,5.845-1.638.983.982.929,1.146-.382,2.565a5.412,5.412,0,0,1-2.458,1.583c-.6,0-.328.327.546.655,1.256.491,1.912.382,3.223-.71,3.387-2.729,4.206-2.893,7.211-1.2,1.967,1.092,2.731,1.91,2.677,2.838-.273,2.456.328,3,2.021,1.91,1.366-.873,2.294-.928,6.828-.327,4.807.655,5.463.928,7.757,3.22a13.858,13.858,0,0,0,6.064,3.548c3.278.928,3.605,1.255,4.206,3.439.874,3.166-.164,6.714-2.841,10.043a35.5,35.5,0,0,0-3.168,4.694A18.408,18.408,0,0,1-13.9,584.05c-1.584,1.583-1.639,1.965-1.256,5.677.765,7.26-2.786,20.8-6.228,23.69a4.124,4.124,0,0,1-3.824.873c-1.475-.218-2.513-.055-2.786.382a10.673,10.673,0,0,1-3.114,1.91,23.536,23.536,0,0,0-4.862,3.057c-2.076,1.8-2.13,1.965-1.475,4.094a8.8,8.8,0,0,1-1.475,7.806,6.6,6.6,0,0,0-1.038,3,7.581,7.581,0,0,1-1.475,3.548c-.819,1.092-2.4,3.6-3.551,5.568-2.731,4.858-4.425,5.677-8.413,4.258-3.442-1.255-5.3-1.365-5.3-.437,0,.382.71.983,1.53,1.365a8.848,8.848,0,0,1,2.9,3.493c1.147,2.293,1.256,3.057.656,4.367-.929,2.02-4.425,3.712-7.7,3.712-2.9,0-3.605.71-2.622,2.565.6,1.146.219,3-.983,4.421a5.862,5.862,0,0,1-2.24-.873c-2.731-1.419-3.66-.491-2.294,2.129a5.527,5.527,0,0,0,2.349,2.4c1.256.382,1.311.491.273,1.638a2.569,2.569,0,0,0-.71,2.238c.219.6-.273,1.965-1.311,3.22-1.639,2.129-1.639,2.293-.6,3.875a5.918,5.918,0,0,0,2.076,2.02c1.967.764,2.24,3.275.765,6.168s-1.693,5.841-.546,7.205c1.038,1.474-2.458,3.93-4.042,3Zm562.884-17.849c-1.857-1.146,2.021-3.766,11.526-7.751a47.663,47.663,0,0,0,9.014-5.185c3.879-2.948,4.206-3.057,5.026-1.965,1.147,1.692.492,2.893-2.4,4.2a12.18,12.18,0,0,0-3.824,2.675,4.431,4.431,0,0,1-2.622,1.528c-.71,0-2.4.982-3.715,2.183-4.589,4.039-10.325,5.949-13,4.312Zm-45.123-8.406c-.655-.437-.71-.873-.164-1.856a8.568,8.568,0,0,0,.71-3.33c0-1.8.164-1.965,1.475-1.528a16.49,16.49,0,0,0,3.715.6c1.256.055,2.458.109,2.731.164,1.093.218-1.8,3.439-4.37,4.967-3.059,1.8-2.95,1.747-4.1.982Zm74.512-5.622c-.219-.218.328-.982,1.2-1.638,1.311-1.037,1.475-1.474.874-2.565-.819-1.528.382-3.22,3.278-4.421,2.24-.928,2.786-2.784,2.185-7.26-.382-3.111-.382-3.275.655-2.456.765.655.983,1.474.71,2.947-.328,1.638-.055,2.456,1.311,4.094,1.475,1.747,1.912,1.91,3.059,1.31s1.256-.546.929.382a8.563,8.563,0,0,0-.437,1.364,7.206,7.206,0,0,1-2.076,1.31,35.7,35.7,0,0,0-5.026,3.493c-2.622,2.129-5.244,3.876-5.954,3.876a2.764,2.764,0,0,1-.71-.437ZM452.9,660.194c-1.366-1.419-1.584-1.474-2.9-.655-1.639,1.092-4.807.437-7.32-1.474-1.311-1.037-1.42-1.365-.765-2.675a2.926,2.926,0,0,0,.055-3.057,8.643,8.643,0,0,1-.71-2.838c0-1.583-1.038-1.637-1.857-.109-.328.6-.819.928-1.038.71s.546-1.474,1.639-2.784c2.786-3.166,1.693-4.039-1.967-1.583a14.251,14.251,0,0,0-3.114,2.565c-.109.382-.874-.764-1.693-2.456a11.854,11.854,0,0,0-3.769-4.585c-2.076-1.365-2.731-1.474-6.665-1.092-5.791.6-11.363,2.02-14.968,3.821a26.322,26.322,0,0,1-7.375,1.965,46.148,46.148,0,0,0-8.631,2.02c-3.5,1.31-4.534,1.474-6.337.873-2.4-.764-3.387-2.4-1.857-3,.546-.218,1.584-1.692,2.24-3.275,1.093-2.566,1.147-3.33.492-6.659a28.552,28.552,0,0,1-.055-9.5,36.761,36.761,0,0,0,.328-7.151,9.338,9.338,0,0,1,.71-4.148c1.038-2.675,1.256-2.838,8.194-5.786,3.933-1.637,7.921-3,8.9-3,2.677,0,5.954-2.511,7.812-6,1.147-2.129,1.912-2.948,2.568-2.675,1.857.71,2.24.6,2.13-.819a1.56,1.56,0,0,1,1.038-1.8,7.439,7.439,0,0,0,2.731-2.62,10.113,10.113,0,0,1,4.042-3.221c2.349-.928,2.568-.928,3.879.218,2.349,2.129,4.042,2.784,4.862,1.8.382-.491.546-1.037.273-1.255-.765-.764,2.622-4.967,4.316-5.4a21.616,21.616,0,0,0,4.042-1.638,5.682,5.682,0,0,1,5.135-.491c5.026,1.365,5.19,1.583,3.332,4.421-2.4,3.657-1.748,5.076,4.152,9.225,2.731,1.91,5.3,3.384,5.736,3.22A14.423,14.423,0,0,0,463.44,596a11.486,11.486,0,0,0,2.513-6.55c.382-3.766,2.185-9.006,3.114-9.006.328,0,.983,1.528,1.584,3.439a12.861,12.861,0,0,0,2.567,4.912c2.021,1.91,3.168,7.205,2.294,10.316-.6,2.074-.492,2.4,1.584,4.53a29.024,29.024,0,0,1,4.261,6.768,48.1,48.1,0,0,0,4.534,7.805l2.513,3.275-.71,5.076a22.473,22.473,0,0,1-2.9,8.952c-2.458,4.312-6.064,8.406-7.976,9.006-.71.218-2.294,1.856-3.551,3.6s-2.567,3.166-2.95,3.166c-.328,0-1.8,1.529-3.278,3.33-2.4,3.057-2.9,3.33-5.408,3.384a7.78,7.78,0,0,0-5.026,1.8l-2.24,1.747-1.475-1.365ZM138.241,646.657a3.666,3.666,0,0,1-1.311-3.93c.273-1.747,0-2.784-1.2-4.64a9.379,9.379,0,0,1-1.584-3.057,17.8,17.8,0,0,0-2.513-4.094c-2.13-2.893-2.622-4.039-2.95-7.7a49.828,49.828,0,0,0-5.463-18.449,29.88,29.88,0,0,1-2.9-7.15c-.492-3.111.765-7.7,3.66-13.318l1.912-3.712L124.8,577.39a11.4,11.4,0,0,1-.656-4.858,4.754,4.754,0,0,0-.819-3.657,27.355,27.355,0,0,1-2.24-5.568,13.513,13.513,0,0,0-3.879-6.386c-4.1-3.985-4.643-5.568-3.332-9.934,2.568-8.9-.219-14.083-7.047-13.046-2.677.382-2.731.328-3.114-1.528-.273-1.419-1.093-2.293-3-3.275-2.567-1.31-3.66-1.31-6.774-.055-.71.273-3.605,1.31-6.446,2.238-4.261,1.419-5.572,1.583-7.429,1.037-1.748-.491-3.223-.382-6.828.6-3.715,1.037-5.08,1.146-7.1.6-4.206-1.146-11.417-7.642-12.455-11.19-.819-2.729-5.736-9.115-7.429-9.607-1.093-.273-1.2-.546-.546-.928.656-.437.546-.655-.492-.928-1.639-.437-1.8-1.747-.219-1.747.983,0,.983-.109.164-.655-.6-.382-.656-.655-.164-.655s.328-.819-.546-2.293c-1.256-2.074-1.256-2.347-.328-3.439,2.9-3.166,3.5-10.044,1.311-14.356-1.038-2.074-.382-4.913,1.857-7.86a62,62,0,0,0,3.66-6.059c2.021-3.875,6.61-9.225,7.812-9.225,1.366,0,5.736-4.749,5.736-6.168a10.617,10.617,0,0,1,5.19-8.679,17.059,17.059,0,0,0,4.534-4.2c1.53-2.456,1.748-2.565,3.551-1.31a11.46,11.46,0,0,0,3.879,1.31c2.185.382,3.223.109,6.446-1.638,5.572-3,9.014-3.712,15.405-3.33,4.206.273,6.118.109,8.14-.71,3-1.2,5.572-.491,4.916,1.365a1.927,1.927,0,0,0,.273,1.8c.437.546.437,1.365,0,2.62-.6,1.583-.437,2.02.983,3.548a8.178,8.178,0,0,0,3.715,2.183c5.19,1.037,6.665,1.692,7.757,3.493a4.677,4.677,0,0,0,3.5,2.347,19.52,19.52,0,0,1,4.261,1.419c1.748.873,1.967.873,3.442-.491.983-.928,1.42-1.91,1.2-2.62a3.584,3.584,0,0,1,.328-2.456c.983-1.856,3.824-1.692,8.249.546,4.807,2.4,13.985,4.148,17.208,3.22a7.627,7.627,0,0,1,4.425,0c4.479,1.365,6.719.273,7.375-3.439.219-1.255.546-2.238.765-2.238.437,0,.656-1.856.71-5.95,0-1.31.328-2.4.71-2.4.437,0,.437-.491-.055-1.365-.819-1.474-2.4-1.474-6.228.109-1.8.764-2.349.71-3.988-.273-2.13-1.255-4.316-1.419-4.916-.437-.492.764-3.769.218-5.572-.873a6.7,6.7,0,0,1-2.513-4.967,3.327,3.327,0,0,0-1.475-2.238c-1.256-.873-1.311-1.092-.492-1.638a3.655,3.655,0,0,1,2.458-.273c1.038.218,1.967-.164,3.168-1.365a5.878,5.878,0,0,1,4.042-1.8,9.536,9.536,0,0,0,4.1-1.31c2.13-1.419,6.992-1.037,10.707.873,5.08,2.511,9.56,2.4,11.363-.382.929-1.419.929-1.747.055-3.111-.546-.819-3.168-2.729-5.791-4.258l-4.807-2.729.929-1.747c.492-.982.765-1.91.546-2.129s-.109-.764.164-1.2a5.421,5.421,0,0,0,.656-1.692c.164-.983-.874-.71-6.009,1.583-3,1.31-3.442,1.747-2.786,2.511a3.143,3.143,0,0,0,2.185.983c1.038,0,.819.328-1.093,1.31-2.294,1.2-2.568,1.255-4.1.273-1.311-.819-1.475-1.255-.819-1.965.6-.71.492-.983-.437-1.365A5.526,5.526,0,0,1,168.833,412c-1.857-2.456-7.7,4.039-9.4,10.426-.819,3-.765,3.166.71,4.312l1.584,1.2-2.9.6a12.831,12.831,0,0,1-4.753.109c-1.857-.491-4.261.273-4.261,1.365,0,.327-.437.437-.983.218a2.089,2.089,0,0,0-1.912.382c-.765.655-.71,1.2.6,3.6,1.42,2.62,1.475,3,.546,4.749-1.093,2.183-2.13,2.02-3.66-.6-1.093-1.856-1.093-1.856.382-2.074,1.8-.273,1.912-1.419.164-1.692-3.988-.655-6.118-2.729-6.118-6.059,0-2.565-2.4-5.4-5.3-6.277a7.891,7.891,0,0,1-3.66-2.129,8.379,8.379,0,0,0-3.223-2.238,8.874,8.874,0,0,1-3.168-2.183c-.656-.983-1.093-1.092-2.13-.546a2.264,2.264,0,0,0-1.256,1.583c0,1.692,8.249,9.225,12.237,11.3q6.391,3.193,1.967,2.293c-2.622-.6-3.332,0-2.458,1.965.656,1.365.546,1.8-.765,3.057l-1.475,1.419.328-1.91c.546-3.057-3.5-7.423-6.828-7.423-1.2,0-5.9-4.53-7.156-6.932-1.311-2.565-2.786-3.057-4.862-1.638-3.114,2.129-5.463,2.838-7.921,2.4-3.278-.546-5.3.6-4.807,2.675.273,1.092.109,1.583-.492,1.583a6.058,6.058,0,0,0-2.731,1.638,7.121,7.121,0,0,1-2.349,1.638c-.819,0-3.059,4.094-3.059,5.513,0,1.365-2.513,4.094-4.971,5.349a11.1,11.1,0,0,1-3.988.71c-1.967,0-2.786.327-3.332,1.31-.71,1.31-.71,1.31-2.4-.328-1.53-1.528-2.458-1.965-5.572-2.4-1.639-.273-1.912-3.985-.71-9.279a18.7,18.7,0,0,0,.6-5.622c-.6-2.456,1.311-3.875,4.479-3.384,7.375,1.146,11.69,1.2,12.728.164,1.366-1.365,2.021-6,1.147-8.57-.546-1.692-1.311-2.347-3.605-3.22-3.332-1.255-3.442-2.511-.164-2.565a8.715,8.715,0,0,0,3.988-1.146c.929-.6,2.021-.982,2.349-.764.929.546,4.37-1.419,5.517-3.166a5.287,5.287,0,0,1,2.4-1.91,17.264,17.264,0,0,0,4.643-3.384c2.513-2.347,3.824-3.057,6.009-3.33,2.677-.328,5.354-2.511,4.1-3.33-.765-.491-1.42-3.657-.983-4.8a6.457,6.457,0,0,1,2.021-2.074l1.639-1.092-.437,2.675c-.382,2.293-.273,2.62.71,2.456a11.326,11.326,0,0,0,2.622-.983c1.2-.655,1.53-.655,1.857.218.546,1.419-.983,3.111-2.021,2.238-.6-.491-.983-.491-1.311.055s-.6.491-.983-.109c-.273-.491-.656-.71-.874-.546-.164.164.328,1.146,1.147,2.183,1.366,1.692,1.639,1.8,3.551,1.092a3.9,3.9,0,0,1,3.879.218c1.584.819,2.13.764,5.244-.382,2.677-1.037,3.769-1.146,4.971-.6a2.99,2.99,0,0,0,2.95-.055c2.9-1.474,3.715-2.62,3.332-4.694-.546-3.057.437-4.094,3-3.111,1.748.655,2.24.655,3.059-.164s.765-1.146-.6-2.62c-1.311-1.419-1.42-1.747-.6-2.293a9.751,9.751,0,0,1,4.37-.273c3.442.382,7.7-.983,6.938-2.183-.656-1.037-4.589-1.365-7.921-.6-2.95.655-3.715.6-6.009-.437-3.5-1.583-3.933-3.439-1.53-6.823,3.114-4.312,3.66-5.677,2.786-6.768-1.311-1.583-2.622-1.037-5.572,2.238a18.44,18.44,0,0,1-4.807,3.985,6.83,6.83,0,0,0-2.9,2.675c-.874,1.692-.874,2.074,0,3.384a5.333,5.333,0,0,0,2.294,1.91c1.967.6,1.584,1.8-1.256,3.766a9.154,9.154,0,0,0-2.568,3.766,7.326,7.326,0,0,1-3.387,4.039c-2.294,1.31-2.4,1.31-3.66.164a6.645,6.645,0,0,1-1.693-2.948,12.018,12.018,0,0,0-2.13-3.875l-1.748-2.129-2.24,1.365a9.2,9.2,0,0,1-3.551,1.365,5.275,5.275,0,0,1-4.589-4.258,9.976,9.976,0,0,0-.6-2.948c-.6-1.419,2.294-4.148,5.3-4.967s9.123-5.131,10.161-7.1a18.738,18.738,0,0,1,3.5-3.985,10.328,10.328,0,0,0,2.622-3c0-.328,1.366-1.146,3.059-1.747s4.534-1.692,6.282-2.4a24.767,24.767,0,0,1,8.413-1.474c6.064-.164,10.051.655,13.384,2.729a5.836,5.836,0,0,0,4.206,1.146c2.24-.437,14.094,3.22,14.586,4.53s-2.9,2.511-5.845,2.074c-1.366-.218-4.1-.71-6.173-1.146-2.786-.6-3.933-.6-4.479-.055s-.273.928,1.038,1.528a6.509,6.509,0,0,1,2.677,2.62c1.311,2.511,5.463,4.585,7.648,3.766,2.076-.764,2.076-1.037-.109-2.238-2.021-1.092-1.093-1.31,1.475-.382,2.021.764,4.316-.164,3.769-1.583-.273-.655.437-1.146,2.458-1.638,4.261-1.092,4.589-1.255,4.206-2.129-1.311-3.275-1.366-3.166.6-2.948,1.038.109,1.8.546,1.693.983s.437,1.092,1.2,1.528c1.147.6,2.021.382,5.08-1.2,4.534-2.347,8.03-3.111,9.341-2.074.71.6,1.967.6,5.463,0,2.458-.437,4.807-.6,5.135-.382a.8.8,0,0,0,1.038-.273c.492-.819-.874-2.675-1.693-2.238-.929.6-3.988-.437-3.332-1.092s18.628,3.493,19.721,4.585c.71.71,3-.218,3-1.255,0-.328-1.256-1.255-2.841-2.02-4.862-2.347-5.19-6.113-.6-7.26,2.622-.655,3.769.109,7.484,4.967,4.753,6.332,4.643,6,3.059,8.188-1.147,1.638-1.2,2.02-.437,2.293,1.53.6,4.753-1.474,5.19-3.275.546-2.129-.437-3.93-2.841-5.185-1.857-.983-3.223-2.729-3.223-4.2,0-.491.71-.655,2.076-.382,2.076.382,3.824-.382,8.577-3.766a9.236,9.236,0,0,1,4.753-1.31c3.769-.109,4.971-.71,3.879-2.02-.437-.491-.656-1.037-.492-1.2.819-.819,11.472-2.293,13.875-1.965,2.349.328,3.059.164,5.026-1.31,1.256-.928,2.24-1.965,2.24-2.293,0-.764-5.627-.71-6.118.055-.656,1.092-1.53.71-1.311-.546.219-1.092-.328-1.255-5.026-1.638-12.837-.982-13.875-1.255-12.346-2.784,1.366-1.365,4.7-1.31,7.429.055a11.621,11.621,0,0,0,4.206,1.037c1.2,0,2.294.273,2.513.655a3.967,3.967,0,0,0,2.513.655c3.223,0,9.451,1.365,9.068,2.02-.164.327.437.546,1.311.546a10.277,10.277,0,0,1,3.769,1.092c1.53.819,3.66,1.092,8.194,1.146,4.862,0,6.5.273,7.921,1.2.983.655,1.748,1.365,1.748,1.583a13.078,13.078,0,0,1-3.332,2.238c-4.37,2.4-3.442,3.493,1.857,2.074,3.442-.873,4.206-.873,7.047-.055a8.831,8.831,0,0,0,5.354.327c1.584-.437,3.223-.382,5.954.382,2.9.764,4.37.819,6.173.327,4.152-1.146,9.232-.819,12.237.764,1.475.819,4.206,2.293,6.009,3.275,3.278,1.8,3.442,1.8,5.681.764,1.912-.873,2.95-.928,5.736-.382s3.824.491,5.353-.327,1.8-1.2,1.2-1.91c-1.147-1.365,2.9-1.856,7.812-.982,2.24.382,5.135.819,6.391.873a19.446,19.446,0,0,1,5.408,1.583c2.622,1.2,4.589,1.474,12.291,1.637,7.32.218,9.614.491,11.363,1.419,1.8.928,3.824,1.2,10.6,1.255,6.228.055,9.014.382,10.871,1.146,3,1.255,4.152.819,2.568-.982-1.147-1.31-1.147-1.31,3.332-.873,7.539.764,16.607,2.4,19.666,3.6a36.385,36.385,0,0,0,6.774,1.583,24.114,24.114,0,0,1,6.883,2.02c2.513,1.255,3.332,1.419,4.971.873,2.24-.764,3.66-.218,7.047,2.729l2.131,1.8-1.584.382c-1.584.382-5.791-.655-7.266-1.8a1.4,1.4,0,0,0-1.311-.273,8.219,8.219,0,0,1-3.332-.6c-3.605-1.255-5.19-.764-3.551,1.037,1.147,1.255,1.093,1.255-1.038,1.092-3.988-.273-2.9.928,2.95,3.166,3.168,1.255,5.954,2.4,6.118,2.565.6.6-1.366,1.31-2.841,1.037-1.584-.327-5.517,1.419-5.517,2.4a4.413,4.413,0,0,1-1.366,1.91c-1.256,1.2-1.53,1.2-3.223.328-1.584-.819-2.076-.819-3.605-.055a21.563,21.563,0,0,1-3.715,1.365,8.692,8.692,0,0,0-2.731,1.146c-1.311,1.092.983,4.2,4.206,5.786a6.52,6.52,0,0,1,3.387,3.057,23.553,23.553,0,0,0,1.584,3.384c.874,1.528.874,1.747-.055,2.074a1.055,1.055,0,0,0-.6,1.528,9.584,9.584,0,0,1,.6,2.729,11.278,11.278,0,0,0,.656,2.675c.328.764.055,1.2-.983,1.528-1.147.382-1.912-.055-3.769-2.129a43.187,43.187,0,0,0-4.753-4.367,33.648,33.648,0,0,1-5.3-5.622c-2.786-3.712-2.841-3.875-1.912-5.677a8.729,8.729,0,0,0,.983-3.33,7.554,7.554,0,0,1,.929-3.057c.929-1.692.546-3-1.42-5.295-1.311-1.474-3.66-.382-3.059,1.474.546,1.692-1.093,2.238-3,.983a12.638,12.638,0,0,0-4.206-1.419c-2.567-.437-2.786-.327-3.442,1.419a8.237,8.237,0,0,0-.382,3.6c.273,1.474.109,1.8-1.42,2.129a8.4,8.4,0,0,1-4.261-.655,6.554,6.554,0,0,0-4.152-.546,41.577,41.577,0,0,1-6.938.546c-4.589.055-5.463.273-6.883,1.583a10.445,10.445,0,0,0-2.349,4.53,17.837,17.837,0,0,1-1.693,4.421c-.874,1.365-.819,1.528,1.748,2.784a10.676,10.676,0,0,0,8.03.983c1.748-.6,7.1,3.548,8.74,6.823a8.5,8.5,0,0,0,2.513,3.111c2.622,1.419,3.168,10.644.983,16.7-1.53,4.2-3.223,5.568-5.736,4.585a14.655,14.655,0,0,0-1.967-.655,15.463,15.463,0,0,0-1.584,2.62c-.983,1.91-1.2,2.893-.71,3.439.929,1.146.219,2.62-1.639,3.439-.874.382-1.584.983-1.584,1.365s2.021,2.02,4.479,3.712c3.114,2.183,4.807,3.821,5.572,5.513.6,1.365.983,2.565.819,2.675s-1.475.819-2.95,1.583l-2.677,1.365L409.96,443.6c-1.8-4.148-3.332-5.786-6.064-6.5-1.366-.382-1.857-.873-1.857-2.02,0-1.037-.655-1.91-2.076-2.729-2.076-1.2-2.13-1.2-4.316.164s-2.24,1.365-2.9.109a6.147,6.147,0,0,1-.71-2.238,2.4,2.4,0,0,0-1.2-1.638c-.983-.546-1.584-.218-3.442,1.747a21.729,21.729,0,0,1-3.442,3.111c-1.093.6-1.147.873-.382,1.747a19.461,19.461,0,0,0,3.66,2.62c2.458,1.365,2.9,1.419,3.715.6.765-.764,1.42-.819,3.769-.164l2.841.764-1.584,1.037c-2.95,1.965-3.824,3-4.261,4.749-.328,1.474-.164,1.856,1.147,2.456a8.479,8.479,0,0,1,2.95,3.493,10.518,10.518,0,0,0,3.332,3.93c2.349,1.419,3.059,2.893,1.693,3.657-1.256.71-.656,1.747,1.038,1.747,2.021,0,2.021,1.2.055,8.133-2.349,8.351-4.48,11.19-10.052,13.209a27.577,27.577,0,0,1-5.9,1.583,8.016,8.016,0,0,0-6.064,3.33L378.6,488.2l-.6-1.638c-.819-2.129-2.677-2.675-5.3-1.528a7.7,7.7,0,0,0-4.7,4.8c-.6,1.91,1.475,5.24,4.862,7.915,2.786,2.183,5.9,7.751,6.665,11.79.656,3.493-.492,5.84-3.551,7.205a5.986,5.986,0,0,0-2.9,2.292c-.492,1.528-3.332,3.384-3.879,2.511a2.666,2.666,0,0,1,0-1.856,3.9,3.9,0,0,0,0-2.238c-.328-.819-.656-.928-1.693-.382s-1.475.437-2.349-.819c-2.13-3.057-8.194-7.969-9.888-7.969-.6,0-.819.71-.71,2.238a22.319,22.319,0,0,1-.546,5.4c-.656,2.784-.546,3.33.656,4.912a12.783,12.783,0,0,1,1.748,3.439c.219.928,2.076,2.948,4.206,4.694,3.551,2.838,3.933,3.439,5.408,8.133a56.827,56.827,0,0,1,1.584,5.677c0,1.092-1.366.655-4.152-1.365-2.9-2.074-4.753-5.4-6.337-11.244a7.764,7.764,0,0,0-3.5-5.131c-2.567-1.911-2.622-2.074-2.458-5.186a47.443,47.443,0,0,1,.656-5.568c.328-1.8.055-3.111-1.2-5.786a43.128,43.128,0,0,1-2.4-6.441c-.929-3.712-2.185-4.312-4.479-2.183a8.461,8.461,0,0,1-2.131,1.637c-1.038,0-2.458-2.183-2.076-3.275.6-1.91-3.168-8.679-5.354-9.607a6.368,6.368,0,0,1-3.059-3.33c-1.311-2.838-2.731-3.93-4.152-3.166a26.224,26.224,0,0,1-4.643,1.255c-3.715.764-5.08,1.911-4.589,3.821.164.71-.492,1.419-2.021,2.183a7.205,7.205,0,0,0-3.059,2.729,4.153,4.153,0,0,1-1.967,2.02,5.786,5.786,0,0,0-2.349,2.183,20.949,20.949,0,0,1-3.988,4.039c-2.185,1.692-2.841,2.62-2.731,3.766.656,6.878-.328,12.609-2.731,16.048-2.294,3.33-2.458,3.439-4.425,2.511a3.664,3.664,0,0,1-2.021-2.893,45.189,45.189,0,0,0-2.9-7.478c-8.249-17.685-9.451-21.069-8.74-24.29.492-2.183-.656-5.4-1.748-5.076a1.329,1.329,0,0,0-.819,1.2c-.055,2.948-3.387,3.384-5.954.819l-1.693-1.692,1.475-.546c1.639-.6,1.53-2.238-.164-1.965a5.27,5.27,0,0,1-3.059-1.474,7.726,7.726,0,0,0-2.513-1.637c-.328,0-.765-.6-.983-1.31-.6-1.856-4.042-3.493-5.736-2.729-1.53.71-15.569.546-17.918-.164a11.221,11.221,0,0,1-3.5-2.675c-1.912-2.183-1.967-2.183-4.862-1.419-2.731.71-3.114.655-6.828-1.2-3.168-1.583-4.152-2.456-5.135-4.64-1.256-2.784-4.042-4.8-5.736-4.148a3.308,3.308,0,0,0-1.366,2.238c-.328,1.474,0,2.456,1.584,4.585a19.592,19.592,0,0,1,2.677,5.185c.765,2.893,2.349,3.766,3.605,2.02.765-1.037.983-1.092,1.53-.273a2.389,2.389,0,0,1,.382,1.583c-.382,1.092,3.387,2.948,5.08,2.511.874-.218,2.731-1.692,4.152-3.33,2.24-2.511,3-2.675,2.622-.6-.273,1.419.874,3.111,2.731,4.094,2.9,1.474,6.883,4.8,6.883,5.677a5.05,5.05,0,0,1-1.693,2.293,16.791,16.791,0,0,0-2.95,4.039c-1.693,3.33-6.61,8.133-8.3,8.133a8.6,8.6,0,0,0-5.954,3.384,9.58,9.58,0,0,1-3.168,2.565c-6.118,3.057-13.493,6.168-15.569,6.55-2.24.437-2.4.327-3.605-2.02a22.269,22.269,0,0,1-1.693-6,9.642,9.642,0,0,0-2.349-5.677,8.477,8.477,0,0,1-1.857-2.729,12.709,12.709,0,0,0-2.568-3.275,15.144,15.144,0,0,1-3.66-6.277,19.62,19.62,0,0,0-2.622-5.568c-5.9-7.369-7.648-9.934-8.577-12.663-1.147-3.6-2.185-4.148-2.622-1.528l-.328,1.856-2.185-2.729c-3.387-4.258-3.769-2.293-.656,2.838,1.475,2.456,3.879,6.768,5.3,9.607a63.523,63.523,0,0,0,4.1,7.151,7.741,7.741,0,0,1,1.53,4.094c0,2.456.71,3.93,3.551,7.478a13.841,13.841,0,0,1,2.513,4.585c.328,1.419,1.53,2.893,4.206,5.076,4.042,3.275,6.719,6.659,7.375,9.5a4.669,4.669,0,0,0,2.349,2.784c1.8.928,2.458.928,8.14-.328a43.34,43.34,0,0,0,7.976-2.293l1.8-.928.437,2.565c.382,2.293-.055,3.439-4.643,12.227-4.916,9.443-5.19,9.771-10.106,13.646a43.583,43.583,0,0,0-6.446,5.95c-.765,1.092-3.223,3.985-5.463,6.5-6.555,7.26-7.429,13.646-3.114,22.216,1.093,2.183,1.53,3.821,1.256,4.858a14.493,14.493,0,0,0,.328,4.858c.6,2.838.546,3.6-.492,5.677-1.53,3-2.731,4.039-6.992,6.223-1.857.928-3.387,1.965-3.387,2.292a18.044,18.044,0,0,1-2.9,3.876c-1.584,1.8-2.9,3.548-2.9,3.93a15.2,15.2,0,0,0,1.311,3.275c2.185,4.312.71,7.423-4.534,9.607-2.24.928-2.95,2.784-2.4,6.168.273,1.747.109,2.347-.874,2.893a10.385,10.385,0,0,0-2.786,3.057c-2.622,4.148-10.27,11.517-13.712,13.209-2.9,1.474-3.605,1.583-5.736.982-1.857-.491-3.387-.437-6.5.328-4.7,1.255-4.152,1.31-6.118-.655Zm85-205.618c1.639-.873,1.912-1.31,1.912-3.766,0-1.747-.382-3.111-.983-3.657a10.7,10.7,0,0,1-2.021-2.729c-.874-1.747-.874-1.856.055-1.528,1.256.491,2.95-.109,2.95-.982a8.375,8.375,0,0,0-1.311-2.511c-1.093-1.528-1.53-1.747-2.568-1.2-.819.437-1.256.437-1.256,0,0-.382-1.147-1.255-2.568-1.965-3.114-1.583-4.206-3.33-3.278-5.185.71-1.365,3.387-2.347,4.479-1.638,1.53.928,1.967-.437.71-2.183-3-4.258-7.265-3.985-12.455.819-3.387,3.111-3.66,3.93-1.748,4.913a2.438,2.438,0,0,1,1.311,1.638c0,.546,1.147,2.183,2.568,3.712,3.223,3.493,3.824,5.076,3.442,9.225l-.328,3.33,4.425,2.292c2.458,1.255,4.534,2.293,4.643,2.293a6.5,6.5,0,0,0,2.021-.873ZM205.488,621.112c-1.8-1.037-2.076-1.583-2.568-5.4-.382-3.057-.219-3.712,1.584-6.659,1.857-3,1.967-3.6,1.584-6.823-.6-4.694.437-7.205,3.168-7.806,2.568-.546,8.194-5.513,9.505-8.406l1.038-2.238.71,1.583c1.8,3.93,1.584,5.622-1.53,14.246-1.639,4.585-3.442,10.1-3.988,12.227-1.639,6.823-2.622,8.461-5.3,9.279-2.9.928-2.622.928-4.206,0Zm317.824-11.19c-2.076-2.238-3.278-4.2-3.278-5.131,0-2.183.328-1.965,2.185,1.2a26.578,26.578,0,0,0,3.551,4.64,8.122,8.122,0,0,1,1.967,2.4c0,1.2-1.366.273-4.425-3.111Zm-33.978-30.84c-4.1-1.31-5.954-2.456-7.539-4.858-1.857-2.729-5.19-4.8-6.938-4.258a6.374,6.374,0,0,0-2.567,2.675c-1.256,2.129-1.475,2.238-3.769,1.8a9.837,9.837,0,0,1-4.152-2.02c-1.2-1.092-2.13-1.474-3.059-1.146a3.424,3.424,0,0,1-2.349-.164c-.874-.491-.819-.71.6-1.638,1.639-1.092,1.639-1.092.546-3.384-.874-1.856-2.131-2.838-6.118-4.8-2.731-1.365-5.845-2.511-6.883-2.511-2.4,0-3.387-2.183-1.584-3.548,1.093-.764.929-.983-1.912-2.347-3-1.419-3-1.528-1.584-2.293a7.253,7.253,0,0,1,2.9-.819c1.53,0,3.442,2.129,3.442,3.875a5.921,5.921,0,0,0,1.42,2.838c1.366,1.747,1.42,1.747,2.4.491a18.545,18.545,0,0,1,3.988-3l2.95-1.692,4.1,1.856c2.294,1.037,5.463,2.347,7.156,2.948a44.366,44.366,0,0,1,7.429,3.985c4.589,3,6.61,5.567,5.463,6.932-.929,1.146,2.731,6.223,6.555,9.116,4.206,3.111,4.1,3.439-.492,1.965Zm-98.385-6.932a51.237,51.237,0,0,1-7.211-1.583c-1.693-.546-3.66-.819-4.37-.546-1.475.491-7.757-1.365-7.757-2.293,0-2.074,5.79-2.238,8.85-.218,1.147.764,2.076.764,4.48.218,2.677-.6,3.223-.546,4.807.655a7.192,7.192,0,0,0,2.458,1.31c1.256,0,5.135,2.183,4.807,2.675a1.206,1.206,0,0,1-1.093.437c-.437-.055-2.677-.327-4.971-.655Zm98.111-6-1.584-.873,2.458-.491a11.49,11.49,0,0,0,4.643-2.4c1.311-1.146,2.185-1.583,2.185-1.037,0,1.31-.819,2.347-3.223,4.094-2.513,1.91-2.4,1.91-4.479.71Zm-121.055-2.511c-2.349-1.365-6.665-6.55-8.03-9.825a35.89,35.89,0,0,0-3.824-6.386,43.93,43.93,0,0,1-3.442-5.131,23.239,23.239,0,0,0-3.66-4.53c-3.114-3-5.026-6.113-3.715-6.113,1.693.055,6.064,2.456,7.921,4.421,5.135,5.4,6.228,6.332,8.631,7.86,2.349,1.419,3.441,2.947,3.551,4.858a6.727,6.727,0,0,0,1.475,2.238c.819.873,2.294,2.565,3.332,3.712a10.8,10.8,0,0,1,2.294,3.985c.765,3.384-1.967,6.386-4.534,4.913Zm40.7-.437a2.823,2.823,0,0,1,0-1.91,3.9,3.9,0,0,0-.6-2.784c-.874-1.365-.874-1.638.109-3.057a14.634,14.634,0,0,0,1.584-5.076c.328-2.4.983-3.985,2.021-5.022,1.42-1.419,1.748-1.474,4.916-.873,2.731.491,3.769.437,5.244-.328,2.458-1.255,2.677-1.2,1.857.6a3.621,3.621,0,0,1-5.354,1.856c-3.933-2.074-9.177.982-6.391,3.766,1.038,1.037,1.584,1.092,3.442.546,3.223-.928,4.479-.764,2.458.328-2.24,1.2-2.677,2.565-1.53,4.858a9.155,9.155,0,0,1,.983,3.548c0,1.474-.164,1.583-1.311.982a7.1,7.1,0,0,1-2.294-3.057c-.983-2.347-.983-2.347-2.24-1.092-1.093,1.092-1.147,1.583-.546,3.766.546,1.965.492,2.62-.164,3.057-1.2.71-1.693.71-2.185-.109Zm88.5-3.439a10.119,10.119,0,0,0-3.114-2.729c-1.093-.546-1.857-1.146-1.693-1.365.983-.983,6.61,3.548,6.118,4.967-.055.491-.656.109-1.311-.873Zm-101.28-2.129a4.663,4.663,0,0,0-2.9-.546c-1.584.491-7.976-.764-8.631-1.747a59.945,59.945,0,0,1-2.786-8.843,3.889,3.889,0,0,1,.492-2.838c.765-.982,1.147-1.092,2.294-.437,1.256.655,1.475.546,2.185-.928a8.051,8.051,0,0,1,3.114-2.893,7.371,7.371,0,0,0,3.168-3.166,4.616,4.616,0,0,1,3-2.675,9.333,9.333,0,0,0,3.879-2.948c.929-1.255,2.021-2.183,2.458-2.183s1.693.983,2.841,2.129l2.076,2.129-1.639,2.238c-1.857,2.511-1.8,4.694.328,7.7l1.311,1.8-1.584,1.037c-.874.6-1.584,1.419-1.584,1.856,0,1.474-4.152,9.989-5.19,10.644-.765.437-1.639.328-2.841-.328Zm25.347-29.53c-1.256-2.893-1.42-3-3.278-2.565-1.912.437-1.967.382-1.256-.982.6-1.092,1.147-1.31,2.513-.983,1.311.273,2.185,0,3.5-1.2a5.376,5.376,0,0,0,1.748-2.784c0-1.638,2.4,3.821,2.95,6.768.437,2.238.382,2.347-.656,1.528-1.475-1.255-2.95.055-1.693,1.528.492.6.546.983.164.983a5.667,5.667,0,0,0-1.693.382c-.71.273-1.311-.437-2.294-2.675Zm-117.614,1.146c-.71-1.146-1.147-6.441-.6-7.806.546-1.474.6-1.474,2.24.983,1.967,2.893,2.622,4.749,1.967,5.786-.656.928-3.223,1.692-3.605,1.037Zm98.931-7.151a19.138,19.138,0,0,1,2.9-3.712c2.294-2.565,2.9-2.948,2.9-1.856a8.047,8.047,0,0,1-2.13,3.712C404.169,522.479,402.585,523.3,402.585,522.1ZM416.57,520.4a3,3,0,0,1,.109-2.074c.437-.819.656-.819,1.256-.055.546.71.546,1.2-.109,2.074C417.007,521.442,416.952,521.442,416.57,520.4Zm4.316-2.675a11.273,11.273,0,0,0-.71-1.692c-.164-.273,0-.491.328-.491.656,0,1.53,2.62,1.093,3.111C421.432,518.822,421.1,518.385,420.885,517.73Zm-6.555-1.692a1.41,1.41,0,0,1,1.311-2.347c.874.164.874.437.219,1.692S414.931,516.748,414.33,516.038Zm7.648-2.238c-.765-.928-1.256-1.8-1.093-1.965.546-.546,2.349.655,3.278,2.129C425.638,516.2,423.781,516.093,421.978,513.8Zm-10.6-2.511a3.286,3.286,0,0,1-1.038-1.8c0-.437.656-.109,1.42.655s1.256,1.583,1.038,1.8S411.926,511.89,411.38,511.289ZM417.826,509a4.166,4.166,0,0,0-2.731-.273c-1.256.327-2.13-.164-4.425-2.62-3.278-3.384-3.933-4.8-2.95-6.659a8.033,8.033,0,0,0,.656-3.22c0-3.493,2.349-3.384,4.042.218.929,2.02.983,2.4.055,4.585-.983,2.292-.929,2.4.765,4.2,1.256,1.31,2.185,1.747,3.168,1.474a2.1,2.1,0,0,1,2.185.655c1.2,1.419.71,2.456-.765,1.637ZM-102.23,494.1a4.789,4.789,0,0,0-2.841-.218,7.062,7.062,0,0,1-3.387-.218c-1.366-.546-1.256-.6,1.038-.546,3.442.055,4.37-.491,3.5-2.129-.6-1.146-.437-1.255,2.622-1.255,3,0,7.266,1.365,7.976,2.566.546.764-7.757,2.456-8.9,1.8Zm-10.215-5.349a7.7,7.7,0,0,0-3-.382c-2.021-.055-2.513-.218-2.021-.819s-.219-1.365-2.568-2.893c-4.643-3-7.265-3.6-10.379-2.347-2.95,1.146-3.168,1.2-3.168.491,0-1.365,5.135-2.838,8.85-2.565,3.551.273,5.517,1.037,12.455,4.749,5.681,3.057,5.736,3.057,3.879,3.6C-110.533,489.074-112.008,489.183-112.445,488.746Zm518.526-6.6a7,7,0,0,1-1.475-1.965c-.656-1.255-.6-1.8.382-3.493,1.53-2.565,2.513-2.893,3-.928.492,2.02-.983,6.987-1.912,6.386Zm18.41-26.855a6.769,6.769,0,0,0-1.584-2.784c-2.021-2.4-1.311-4.039,1.093-2.456,1.748,1.146,2.677,3.493,2.021,5.131C425.583,456.487,424.491,456.542,424.491,455.286Zm3.605-4.64c-.437-1.092.546-2.129,2.076-2.129,1.038,0,1.038,1.419.055,2.456-1.093.983-1.639.928-2.13-.327Zm5.9-2.4c-1.256-1.91-3-2.183-7.047-1.037-1.639.437-2.786.437-3.551,0-.6-.382-.765-.655-.382-.655a7.752,7.752,0,0,0,2.677-1.637c1.366-1.146,2.4-1.528,3.5-1.255,1.147.273,2.4-.273,5.026-2.238,5.08-3.821,5.572-5.022,3.5-9.116-1.967-3.93-1.42-5.185,1.53-3.439,2.13,1.255,4.152,4.913,3.605,6.441a7.8,7.8,0,0,0,.71,3.821c.819,2.238.929,3.166.382,4.2-.819,1.528-3.114,2.565-5.736,2.565-1.475,0-1.912.382-2.4,2.074l-.6,2.074-1.2-1.8Zm-309.411-9.716c-2.568-1.31-2.677-1.474-1.366-1.856,1.639-.437,5.19.109,5.135.764a5.577,5.577,0,0,1-.492,1.474C127.425,439.893,127.152,439.839,124.585,438.529Zm309.029-13.81c-1.2-1.638-1.2-1.965-.328-3.22.874-1.2.874-1.583-.055-3.275-1.475-2.784-1.256-2.948,1.256-1.037a22.126,22.126,0,0,0,5.463,2.675c3.605,1.092,4.479,1.91,2.622,2.511-.71.218-1.311.819-1.311,1.365,0,.71-.437.819-1.748.491-3.387-.873-4.37-.655-4.152.928.273,1.856-.164,1.8-1.748-.437Zm-4.1-12.827a35.791,35.791,0,0,1-2.95-5.022,49.255,49.255,0,0,0-6.282-8.679c-2.677-2.948-3.988-4.913-3.5-5.076.437-.164,1.42.546,2.13,1.474a33.1,33.1,0,0,0,7.429,6.932c2.841,2.129,4.261,4.039,2.4,3.33-2.13-.819-1.584,1.146,1.147,4.2a29.5,29.5,0,0,1,2.9,3.6c.109.819-2.4.218-3.278-.764Zm-472.147-1.146c0-.546.273-.983.6-.983s.437.437.273.983c-.219.546-.492.983-.6.983S-42.631,411.291-42.631,410.746Zm-3.332-2.074-2.4-.273,4.534-4.476c2.513-2.456,4.862-4.476,5.244-4.476.437,0,.273.491-.273,1.146-1.366,1.474-.437,3.166,2.021,3.712a3.8,3.8,0,0,1,2.568,1.965c.656,1.474.546,1.583-1.693,2.238-2.4.6-5.19.655-10,.164Zm-157.219-4.64c-2.24-2.074-2.458-2.948-.983-3.548,1.311-.491,3.769,1.146,4.7,3.166.983,2.129.983,2.238-.492,2.238C-200.614,405.942-202.089,405.069-203.182,404.032Zm284.119-3.275c.71-.328,2.13-.928,3.114-1.31,2.185-.819,1.857-1.638-.929-2.183-1.912-.382-1.967-.491-.874-1.255.656-.491.983-1.146.765-1.528s.437-.983,1.53-1.365c1.038-.382,1.912-.983,1.912-1.31,0-1.474-1.366-3.985-2.076-3.875-1.748.218-2.513-.055-2.24-.873a2.745,2.745,0,0,0-.273-1.91c-.819-1.638,1.093-4.967,2.841-4.967.273,0,.437.327.328.764s.546.873,1.366,1.037l1.53.218-1.42,1.528-1.42,1.528,1.639.6c1.748.655,3.442,2.838,5.135,6.6.819,1.8,1.366,2.293,2.349,2.02,1.967-.491,2.185.819.382,2.02-1.256.819-1.475,1.31-.929,1.856s-.546.928-4.261,1.474c-2.786.382-6.064.928-7.265,1.146-1.967.327-2.185.273-1.2-.218Zm-10.871-3.548a4.709,4.709,0,0,1,.546-2.893c.6-1.146.71-2.02.328-2.238-1.093-.71-.71-1.583.929-1.965a5.4,5.4,0,0,0,2.349-1.31c.874-1.037,4.807-1.2,5.408-.273.219.328-.055,1.31-.6,2.074a6.356,6.356,0,0,0-.983,3.166c0,1.419-.437,1.856-2.731,2.675-1.53.546-3.223,1.146-3.769,1.419A1.039,1.039,0,0,1,70.066,397.209Zm-317.223-14.738c0-.437,1.967-1.255,4.753-1.91,1.038-.273,1.693-.218,1.475.164a3.878,3.878,0,0,1-2.13.928,19.151,19.151,0,0,0-2.9.819c-.656.164-1.2.218-1.2,0Zm383.432-7.26c-1.2-.491-.983-1.2.382-1.31.656-.055,1.2.327,1.2.819-.055.928-.273,1.037-1.584.491Zm-141.759-3.33c-4.1-2.238-6.009-5.622-4.862-8.515a3.257,3.257,0,0,0,.055-3.166c-1.093-2.02.328-4.312,3.879-6.55a13.285,13.285,0,0,0,3.769-3.166c1.038-1.91.109-5.24-1.693-6.059-.929-.437-1.42-1.092-1.2-1.583.437-1.2-1.693-5.24-3.824-7.26-1.584-1.474-2.24-1.638-7.648-1.638-7.32-.055-8.686-.437-8.577-2.565.055-.873.219-1.583.437-1.583.164,0,2.786-.328,5.791-.655a41.05,41.05,0,0,0,11.581-3.275c6.61-2.838,7.156-2.893,22.944-2.511a79.167,79.167,0,0,0,15.46-1.255c5.517-.928,9.56-1.255,11.745-1.037a20,20,0,0,0,6.064-.327c3.5-.928,12.674.218,16.279,2.02,2.13,1.092,3.278,1.2,6.828.873,3.879-.382,4.152-.327,3,.546a13.657,13.657,0,0,1-4.862,1.419c-4.261.546-8.14,3.548-7.1,5.513.437.819.109,1.528-1.311,2.893a9.563,9.563,0,0,0-2.24,2.893c-.437,1.419-6.173,4.039-8.959,4.148-3.168.109-3.5.764-1.038,2.129a33.586,33.586,0,0,1,3.715,2.4l1.639,1.255-1.475.546c-1.147.437-2.076.164-3.933-1.146-2.568-1.747-5.3-1.8-3.824,0,.546.71.437.983-.656,1.255-2.4.6-.71,1.856,1.967,1.419,1.693-.273,2.622-.109,3.168.491.6.764-.164,1.092-4.917,2.074a65.585,65.585,0,0,1-9.177,1.255c-3.605.055-6.228,1.092-10.106,4.039a19.66,19.66,0,0,1-7.047,2.511c-6.5,1.255-8.74,2.675-12.619,8.3-3.168,4.476-5.08,6.168-6.992,6.168a17.449,17.449,0,0,1-4.261-1.856Zm-117.122-19.268a25.867,25.867,0,0,1-4.807-1.692l-3.168-1.419,4.479-.327c2.458-.164,4.479-.6,4.479-.983s-1.748-.819-3.879-.983c-2.786-.273-3.332-.437-1.912-.655,2.349-.382,2.513-1.365.328-1.91-1.584-.382-1.584-.437.656-1.365a17.272,17.272,0,0,1,11.636-.873c3,.873,3.442.873,4.862-.055.983-.655,1.584-.764,1.639-.327.055.382.109,1.037.164,1.474.164,1.419,1.42,1.2,2.95-.437,1.42-1.528,3.879-2.238,3.879-1.146a12.286,12.286,0,0,1-1.256,2.565l-1.256,2.074,2.076,1.092,2.076,1.092-3.442,1.583c-3.059,1.419-3.715,1.474-6.5.819-2.677-.655-3.442-.546-6.173.6-3.059,1.31-3.66,1.365-6.828.873Zm322.249-5.185c-3.278-1.31-3.223-1.255-2.294-2.4.437-.546.546-.983.273-.983-.328,0,0-.437.71-.983s1.311-1.2,1.311-1.419c0-.928,2.622-3.493,4.479-4.312a22.656,22.656,0,0,1,6.118-1.2c2.294-.164,5.408-.491,6.883-.764,1.584-.218,2.841-.164,3.059.218.437.764-.437,1.037-5.408,1.965-4.971.873-7.976,2.293-9.942,4.64-2.076,2.456-2.13,4.039-.219,5.349l1.475,1.037-1.912-.055a21.581,21.581,0,0,1-4.534-1.092Zm-260.629-9.334c-4.261-.328-7.812-.71-7.921-.764-.6-.546.874-2.293,2.4-2.893,1.53-.655,2.24-.546,4.316.491,2.021,1.037,3.332,1.2,7.1.928a32.823,32.823,0,0,1,6.446.109l1.8.437-2.24,1.2a8.787,8.787,0,0,1-3.223,1.146c-.492-.055-4.425-.328-8.686-.655ZM-46.455,334c-1.093-.655-2.677-.873-5.135-.6-2.294.218-4.042.055-5.026-.491-1.311-.764-.983-.819,3.059-.819,5.026.055,7.265-1.037,4.534-2.183-1.311-.546-1.093-.6,1.093-.273,2.9.382,4.042-.382,2.458-1.692-1.693-1.419.164-1.856,6.173-1.419,3.715.218,6.064.109,6.992-.382,1.8-.982,1.093-2.238-.983-1.692-1.42.382-11.472-.218-11.035-.655.328-.327,14.476-1.638,23.818-2.183,4.807-.327,10.215-.71,11.909-.928l3.168-.382-5.19,2.511c-4.862,2.347-12.838,4.64-16.061,4.64a17.28,17.28,0,0,0-5.08,1.91,20.68,20.68,0,0,1-4.534,1.91,21.858,21.858,0,0,0-4.7,1.91l-3.824,1.91A12.491,12.491,0,0,0-46.455,334Z" fill="none" stroke="rgba(244,244,244,0.53)" stroke-width="2"/>
  </g>
</svg>
